<?xml version="1.0" encoding="utf-8"?>
<!-- Generator: Adobe Illustrator 25.4.1, SVG Export Plug-In . SVG Version: 6.00 Build 0)  -->
<svg version="1.1" xmlns="http://www.w3.org/2000/svg" xmlns:xlink="http://www.w3.org/1999/xlink" x="0px" y="0px"
	 viewBox="0 0 500 500" style="enable-background:new 0 0 500 500;" xml:space="preserve">
<style type="text/css">
	.st0{fill:#EBEBEB;}
	.st1{fill:#E0E0E0;}
	.st2{fill:#FAFAFA;}
	.st3{fill:#F5F5F5;}
	.st4{display:none;}
	.st5{display:inline;fill:#EBEBEB;}
	.st6{fill:#263238;}
	.st7{fill:#FFBE9D;}
	.st8{fill:#EB996E;}
	.st9{fill:#455A64;}
	.st10{fill:#E8505B;}
	.st11{opacity:0.6;}
	.st12{fill:#FFFFFF;}
	.st13{opacity:0.3;}
	.st14{opacity:0.5;}
	.st15{opacity:0.4;}
</style>
<g id="Background_Complete">
	<g>
		<g>
			<rect x="167.01" y="378.75" class="st0" width="104.15" height="80.33"/>
			<g>
				<path class="st1" d="M245.07,458.52c-0.14,0-0.26-17.91-0.26-39.99c0-22.09,0.12-39.99,0.26-39.99s0.26,17.9,0.26,39.99
					C245.33,440.61,245.21,458.52,245.07,458.52z"/>
			</g>
			<rect x="254.35" y="440.8" class="st2" width="7.98" height="9.03"/>
			<rect x="198.79" y="378.96" class="st1" width="11.83" height="17.14"/>
			<rect x="198.79" y="441.7" class="st1" width="11.83" height="17.14"/>
		</g>
	</g>
	<g>
		<g>
			<rect x="328.82" y="358.61" class="st0" width="131.33" height="101.29"/>
			<g>
				<path class="st1" d="M427.24,459.18c-0.14,0-0.26-22.58-0.26-50.42c0-27.85,0.12-50.43,0.26-50.43s0.26,22.57,0.26,50.43
					C427.5,436.61,427.39,459.18,427.24,459.18z"/>
			</g>
			<rect x="438.94" y="436.84" class="st2" width="10.07" height="11.38"/>
			<rect x="368.88" y="358.87" class="st1" width="14.92" height="21.61"/>
			<rect x="368.88" y="437.98" class="st1" width="14.92" height="21.61"/>
		</g>
	</g>
	<g>
		<g>
			<g>
				<g>
					<g>
						<path class="st0" d="M81.46,361.59c5.32-2.74,11.57-3.1,17.47-2.12c3.17,0.52,6.48,1.47,8.63,3.85
							c2.16,2.38,2.57,6.57,0.09,8.62c-1.47,1.22-3.53,1.4-5.44,1.38c-4.62-0.05-9.74-0.87-13.44,1.91c-2.11,1.59-3.51,4.22-6.02,5
							c-2.46,0.76-5.24-0.69-6.55-2.91c-1.31-2.22-1.35-5-0.74-7.51C75.47,369.81,76.11,364.35,81.46,361.59z"/>
					</g>
				</g>
			</g>
			<g>
				<g>
					<g>
						<path class="st0" d="M69.28,338.08c3.25,4.64,9.57,3.1,12.5,0.27c2.93-2.83,4.17-6.94,5.29-10.86
							c2.57-8.95,5.17-18.33,3.26-27.45c-0.57-2.72-1.59-5.44-3.51-7.46c-1.91-2.02-4.86-3.22-7.55-2.51
							c-3.19,0.84-5.16,3.96-6.6,6.93c-4.21,8.72-6.43,18.39-6.47,28.08C66.2,329.61,66.73,334.35,69.28,338.08"/>
					</g>
				</g>
			</g>
			<g>
				<g>
					<g>
						<path class="st0" d="M60.36,344.74c3.53-4.19,4.2-10.3,2.63-15.54c-1.57-5.25-5.12-9.71-9.21-13.35
							c-4.79-4.27-10.43-7.6-16.49-9.73c-2.38-0.84-4.9-1.5-7.41-1.26c-2.52,0.24-5.05,1.53-6.22,3.76
							c-1.74,3.31-0.07,7.32,1.73,10.6c3.17,5.77,6.79,11.29,10.83,16.49c3.25,4.18,6.96,8.31,11.91,10.2
							c4.95,1.89,10.08,1.67,12.71-1.76"/>
					</g>
				</g>
			</g>
			<g>
				<g>
					<g>
						<g>
							<path class="st1" d="M69.06,408.11c0.06,0,0.16-0.75,0.29-2.11c0.15-1.54,0.34-3.46,0.56-5.76c0.27-2.42,0.62-5.3,1.29-8.44
								c0.67-3.13,1.72-6.52,3.07-9.97c1.4-3.42,3.1-6.53,5.09-9.02c1.98-2.5,4.27-4.31,6.43-5.35c2.15-1.06,4.08-1.5,5.42-1.69
								c1.35-0.14,2.1-0.24,2.1-0.3c0-0.06-0.75-0.07-2.14-0.03c-1.37,0.09-3.38,0.44-5.65,1.47c-2.28,1.01-4.71,2.85-6.79,5.4
								c-2.09,2.54-3.85,5.72-5.27,9.2c-1.37,3.5-2.41,6.93-3.05,10.13c-0.64,3.19-0.93,6.11-1.12,8.55
								c-0.18,2.44-0.25,4.42-0.29,5.79C68.99,407.34,69,408.1,69.06,408.11z"/>
						</g>
					</g>
				</g>
			</g>
			<g>
				<g>
					<g>
						<g>
							<path class="st1" d="M69.46,403.68c0.03,0,0.05-0.34,0.06-0.98c0-0.74,0-1.66-0.01-2.8c-0.01-2.43-0.01-5.94,0.12-10.28
								c0.21-8.68,0.96-18.02,2.41-31.2c1.37-12.39,3.2-26.8,5.14-36.17c0.42-2.13,0.83-4.05,1.23-5.73
								c0.38-1.68,0.7-3.13,1.01-4.31c0.27-1.11,0.48-2.01,0.65-2.72c0.14-0.62,0.2-0.96,0.17-0.97c-0.03-0.01-0.15,0.31-0.34,0.92
								c-0.21,0.7-0.48,1.59-0.81,2.68c-0.36,1.16-0.73,2.61-1.15,4.28c-0.44,1.67-0.9,3.59-1.36,5.71
								c-1.92,8.49-3.94,20.36-5.4,33.56c-1.45,13.2-2.1,25.22-2.16,33.92c-0.05,4.35,0.04,7.87,0.15,10.3
								c0.07,1.14,0.13,2.06,0.17,2.8C69.39,403.34,69.43,403.68,69.46,403.68z"/>
						</g>
					</g>
				</g>
			</g>
			<g>
				<g>
					<g>
						<g>
							<path class="st1" d="M69.52,380.5c0.06,0,0.05-1.04-0.02-2.92c-0.11-1.88-0.37-4.59-0.9-7.92
								c-0.56-3.32-1.35-7.26-2.58-11.54c-0.53-1.96-1.79-6.65-4.83-13.66c-4-9.5-9.44-17.26-14.17-22.07
								c-1.11-1.28-2.35-2.2-3.33-3.1c-0.51-0.43-0.96-0.86-1.42-1.21c-0.46-0.32-0.89-0.62-1.29-0.89
								c-1.56-1.06-2.43-1.63-2.46-1.58c-0.14,0.19,3.49,2.32,8.07,7.2c4.56,4.86,9.85,12.57,13.82,21.99
								c2.21,5.11,3.76,9.66,4.85,13.53c1.27,4.24,2.11,8.14,2.74,11.43c0.6,3.29,0.95,5.98,1.16,7.84
								C69.33,379.46,69.46,380.5,69.52,380.5z"/>
						</g>
					</g>
				</g>
			</g>
		</g>
		<g>
			<g>
				<g>
					<polygon class="st0" points="45.56,417.86 47.89,449.68 88.76,449.68 91.09,417.86 					"/>
				</g>
			</g>
		</g>
		<g>
			<g>
				<g>
					<rect x="41.61" y="405.32" class="st0" width="54.35" height="12.54"/>
				</g>
			</g>
		</g>
		<g>
			<g>
				<g>
					<polygon class="st1" points="41.61,448.47 41.61,451.94 44.17,451.94 95.07,451.94 95.07,448.47 					"/>
				</g>
			</g>
		</g>
		<g>
			<g>
				<g>
					<polygon class="st1" points="46.67,457.68 44.17,451.56 93.12,451.56 90.2,457.68 					"/>
				</g>
			</g>
		</g>
		<g>
			<g>
				<g>
					<g>
						<path class="st3" d="M90.33,428.26c0.01,0.01-0.06,0.11-0.19,0.29c-0.16,0.22-0.36,0.48-0.61,0.81
							c-0.58,0.74-1.38,1.76-2.38,3.05l-0.11,0.14l-0.1-0.14c-1.5-2.07-3.5-4.84-5.85-8.09h0.34c-1.74,2.46-3.68,5.21-5.76,8.16
							l-0.18,0.26l-0.2-0.24c-2.13-2.53-4.43-5.28-6.83-8.13l0.39-0.01c-0.12,0.15-0.25,0.31-0.38,0.47
							c-2.12,2.66-4.17,5.23-6.11,7.66l-0.2,0.26l-0.19-0.27c-2.07-2.93-4.01-5.68-5.76-8.15l0.34,0.02
							c-2.84,3.24-5.25,5.98-7.1,8.09l-0.13,0.14l-0.1-0.16c-0.94-1.57-1.68-2.83-2.22-3.73c-0.23-0.41-0.42-0.73-0.57-0.99
							c-0.13-0.23-0.19-0.35-0.17-0.35c0.01-0.01,0.09,0.1,0.24,0.32c0.17,0.25,0.37,0.57,0.63,0.96c0.57,0.89,1.35,2.12,2.33,3.67
							l-0.22-0.02c1.82-2.13,4.19-4.91,6.98-8.18l0.18-0.21l0.16,0.22c1.77,2.47,3.72,5.2,5.81,8.12l-0.39-0.01
							c1.93-2.43,3.98-5.01,6.09-7.67c0.13-0.16,0.26-0.32,0.38-0.47l0.19-0.24l0.2,0.24c2.39,2.86,4.69,5.61,6.81,8.14l-0.38,0.02
							c2.1-2.93,4.06-5.66,5.82-8.12l0.17-0.24l0.17,0.24c2.3,3.29,4.26,6.09,5.73,8.18l-0.21-0.01c1.04-1.25,1.87-2.25,2.48-2.97
							c0.27-0.31,0.49-0.56,0.66-0.77C90.24,428.34,90.32,428.26,90.33,428.26z"/>
					</g>
				</g>
			</g>
		</g>
		<g>
			<g>
				<g>
					<g>
						<path class="st3" d="M91.66,417.65c0,0.14-10.24,0.25-22.88,0.25c-12.64,0-22.88-0.11-22.88-0.25
							c0-0.14,10.24-0.25,22.88-0.25C81.41,417.4,91.66,417.51,91.66,417.65z"/>
					</g>
				</g>
			</g>
		</g>
	</g>
	<g>
		<g>
			<g>
				<g>
					
						<rect x="370.15" y="56.84" transform="matrix(1 -5.357797e-03 5.357797e-03 1 -0.4109 2.0068)" class="st1" width="8.38" height="41.7"/>
				</g>
			</g>
		</g>
		<g>
			<g>
				<g>
					<g>
						
							<rect x="297.5" y="56.99" transform="matrix(1 -5.354392e-03 5.354392e-03 1 -0.3623 1.652)" class="st0" width="21.7" height="23.02"/>
					</g>
				</g>
			</g>
			<g>
				<g>
					<g>
						
							<rect x="319.1" y="56.87" transform="matrix(1 -5.354417e-03 5.354417e-03 1 -0.3614 1.7677)" class="st3" width="21.7" height="23.02"/>
					</g>
				</g>
			</g>
			<g>
				<g>
					<g>
						<g>
							<path class="st1" d="M297.47,63.4c14.42,0.12,28.88,0.04,43.3-0.2c0.3,0,0.29-0.46,0-0.46c-14.42-0.08-28.88-0.01-43.3,0.26
								C297.22,63.01,297.22,63.4,297.47,63.4L297.47,63.4z"/>
						</g>
					</g>
				</g>
			</g>
		</g>
		<g>
			<g>
				<g>
					<g>
						
							<rect x="283.96" y="79.67" transform="matrix(1 -5.359059e-03 5.359059e-03 1 -0.4729 1.6287)" class="st0" width="39.43" height="18.76"/>
					</g>
				</g>
			</g>
			<g>
				<g>
					<g>
						
							<rect x="323.2" y="79.46" transform="matrix(1 -5.356508e-03 5.356508e-03 1 -0.471 1.8381)" class="st3" width="39.43" height="18.76"/>
					</g>
				</g>
			</g>
			<g>
				<g>
					<g>
						<g>
							<path class="st1" d="M283.94,85c26.19,0.3,52.48,0.03,78.67-0.39c0.3-0.01,0.29-0.46,0-0.46
								c-26.19-0.14-52.48-0.12-78.67,0.45C283.68,84.61,283.68,84.99,283.94,85L283.94,85z"/>
						</g>
					</g>
				</g>
			</g>
		</g>
		<g>
			<g>
				<g>
					<rect x="269.19" y="98.54" class="st1" width="152.76" height="6.72"/>
				</g>
			</g>
			<g>
				<g>
					<rect x="294.2" y="101.77" class="st1" width="6.2" height="22.93"/>
				</g>
			</g>
			<g>
				<g>
					<rect x="386.77" y="101.77" class="st1" width="6.2" height="22.93"/>
				</g>
			</g>
		</g>
		<g>
			<g>
				<g>
					
						<rect x="378.37" y="41.29" transform="matrix(1 -5.357791e-03 5.357791e-03 1 -0.3694 2.0507)" class="st0" width="8.38" height="57.35"/>
				</g>
			</g>
		</g>
		<g>
			<g>
				<g>
					<g>
						
							<rect x="386.79" y="51.98" transform="matrix(1 -5.360371e-03 5.360371e-03 1 -0.3976 2.1093)" class="st3" width="13.02" height="46.48"/>
					</g>
				</g>
			</g>
			<g>
				<g>
					<g>
						<path class="st1" d="M399.6,60.9c0,0.12-2.92,0.23-6.51,0.23c-3.6,0-6.51-0.1-6.51-0.23c0-0.12,2.91-0.23,6.51-0.23
							C396.69,60.68,399.6,60.78,399.6,60.9z"/>
					</g>
				</g>
			</g>
			<g>
				<g>
					<g>
						<path class="st1" d="M399.6,58.95c0,0.12-2.92,0.23-6.51,0.23c-3.6,0-6.51-0.1-6.51-0.23c0-0.12,2.91-0.23,6.51-0.23
							C396.69,58.72,399.6,58.82,399.6,58.95z"/>
					</g>
				</g>
			</g>
			<g>
				<g>
					<g>
						<path class="st1" d="M399.6,91.43c0,0.12-2.92,0.23-6.51,0.23c-3.6,0-6.51-0.1-6.51-0.23c0-0.12,2.91-0.23,6.51-0.23
							C396.69,91.21,399.6,91.31,399.6,91.43z"/>
					</g>
				</g>
			</g>
			<g>
				<g>
					<g>
						<path class="st1" d="M399.6,89.48c0,0.12-2.92,0.23-6.51,0.23c-3.6,0-6.51-0.1-6.51-0.23c0-0.12,2.91-0.23,6.51-0.23
							C396.69,89.25,399.6,89.35,399.6,89.48z"/>
					</g>
				</g>
			</g>
			<g>
				<g>
					<g>
						<path class="st1" d="M393.3,85.22c-0.12,0-0.23-4.69-0.23-10.47c0-5.78,0.1-10.47,0.23-10.47s0.23,4.69,0.23,10.47
							C393.53,80.53,393.43,85.22,393.3,85.22z"/>
					</g>
				</g>
			</g>
		</g>
		<g>
			<g>
				<g>
					<rect x="399.75" y="63.36" class="st0" width="14.17" height="35.08"/>
				</g>
			</g>
		</g>
		<g>
			<g>
				<circle class="st1" cx="382.28" cy="51.06" r="2.41"/>
			</g>
		</g>
		<g>
			<g>
				<rect x="381.54" y="57.69" class="st1" width="1.49" height="34.12"/>
			</g>
		</g>
	</g>
</g>
<g id="Background_Simple" class="st4">
	<path class="st5" d="M415.73,110.92l-2.12-3.45c-17.86-29.06-50.15-46.58-84.19-44.45c-4.38,0.27-8.73,0.86-13.03,1.77
		c-30.95,6.54-57.89,29.66-69.05,59.26c-6.57,17.41-8.4,37.45-20.86,51.27c-16.22,17.98-43.74,18.55-67.95,17.8
		c-24.2-0.75-51.75-0.11-67.89,17.95c-10.11,11.31-13.32,27.39-12.5,42.53c2.16,40.09,30.45,75.94,66.43,93.76
		c35.98,17.82,78.34,19.41,117.72,11.58c55.16-10.98,107.62-41.14,139.16-87.71C432.98,224.64,440.96,161.19,415.73,110.92z"/>
</g>
<g id="Floor">
	<g>
		<path class="st6" d="M464.66,459.35c0,0.14-96.11,0.26-214.65,0.26c-118.57,0-214.67-0.12-214.67-0.26
			c0-0.14,96.09-0.26,214.67-0.26C368.54,459.09,464.66,459.21,464.66,459.35z"/>
	</g>
</g>
<g id="Character">
	<g>
		<g>
			<path class="st6" d="M149.21,92.35c4.69,5.7,7.3,13.08,7.22,20.46c-0.05,4.22-0.82,8.87,1.63,12.3c1.86,2.6,5.26,3.91,6.77,6.73
				c1.82,3.39,0.27,7.68,1.39,11.36c1.59,5.22,7.7,7.41,11.33,11.48c3.15,3.54,4.31,8.71,3.04,13.27c-1.27,4.56-4.9,8.38-9.38,9.92
				c-2.4,0.83-5.15,1.01-7.42-0.12c-2.45-1.22-3.97-3.73-5.2-6.18c-2.42-4.82-23.59-30.87-24.79-36.12"/>
			<path class="st6" d="M133.81,86.21c-8.66-1.39-16.98,4.35-20.63,12.33c-3.65,7.97-3.75,17.04-4.02,25.81
				c-0.27,8.76-0.88,17.91-5.36,25.46c-2.84,4.79-7.24,8.98-7.93,14.51c-0.62,4.94,1.94,9.92,1.09,14.83
				c-0.74,4.27-4,7.99-3.87,12.33c0.16,5.22,5.52,9.15,10.74,9.29c5.22,0.14,10.09-2.59,14.18-5.84
				c6.64-5.26,12.02-12.1,15.57-19.78"/>
		</g>
		<g>
			<g>
				<g>
					<g>
						<g>
							<path class="st7" d="M119.56,106.85c-1.14-9.13,5.46-17.47,14.73-18.36c8.74-0.83,16.5,5.67,17.81,14.35
								c1.15,7.61,2.13,15.29,2.1,18.08c-0.11,8.41-5.03,11.69-7.02,12.67c-0.46,0.22-1.71,0.48-2.21,0.55l0,0
								c-0.03,0-0.05,0.03-0.05,0.07l1.87,9.66c0.85,6.33-2.68,11.97-9,12.89c-6.34,0.92-11.29-3.94-12.26-10.27L119.56,106.85z"/>
						</g>
						<g>
							<g>
								<g>
									<g>
										<g>
											<g>
												<path class="st6" d="M150.39,106.53c-0.14,0.2-1.25-0.4-2.67-0.19c-1.42,0.19-2.36,1.08-2.54,0.92
													c-0.09-0.07,0.03-0.4,0.44-0.8c0.4-0.4,1.12-0.83,2-0.95c0.89-0.12,1.68,0.09,2.16,0.36
													C150.27,106.15,150.46,106.45,150.39,106.53z"/>
											</g>
										</g>
									</g>
								</g>
							</g>
						</g>
						<g>
							<g>
								<g>
									<g>
										<g>
											<g>
												<path class="st6" d="M137.73,109.61c-0.14,0.2-1.25-0.4-2.67-0.19c-1.42,0.19-2.36,1.08-2.54,0.92
													c-0.09-0.07,0.03-0.4,0.44-0.8c0.4-0.4,1.12-0.83,2-0.95c0.89-0.12,1.68,0.09,2.16,0.37
													C137.6,109.23,137.8,109.52,137.73,109.61z"/>
											</g>
										</g>
									</g>
								</g>
							</g>
						</g>
						<g>
							<g>
								<g>
									<g>
										<g>
											<path class="st6" d="M142.92,117.24c-0.02-0.08,0.84-0.36,2.25-0.75c0.36-0.09,0.69-0.21,0.72-0.47
												c0.05-0.28-0.16-0.64-0.4-1.04c-0.47-0.83-0.96-1.7-1.48-2.61c-2.07-3.72-3.62-6.81-3.47-6.89
												c0.15-0.08,1.95,2.87,4.02,6.59c0.5,0.92,0.98,1.8,1.44,2.64c0.2,0.39,0.5,0.83,0.4,1.4c-0.06,0.29-0.3,0.52-0.52,0.62
												c-0.22,0.11-0.43,0.14-0.6,0.18C143.83,117.19,142.94,117.32,142.92,117.24z"/>
										</g>
									</g>
								</g>
							</g>
						</g>
						<g>
							<g>
								<g>
									<g>
										<path class="st8" d="M144.91,134.16c0,0-5.43,1.25-12.91-1.88c0,0,3.23,6.95,13.41,4.48L144.91,134.16z"/>
									</g>
								</g>
							</g>
						</g>
						<g>
							<g>
								<g>
									<g>
										<path class="st6" d="M137.01,105.88c-0.08,0.41-1.53,0.43-3.17,0.88c-1.65,0.41-2.93,1.1-3.2,0.78
											c-0.12-0.15,0.06-0.55,0.55-1c0.49-0.45,1.29-0.93,2.28-1.19c0.99-0.26,1.93-0.23,2.57-0.07
											C136.69,105.43,137.04,105.69,137.01,105.88z"/>
									</g>
								</g>
							</g>
						</g>
						<g>
							<g>
								<g>
									<g>
										<path class="st6" d="M149.22,103.38c-0.2,0.36-1.23,0.17-2.42,0.32c-1.19,0.11-2.15,0.53-2.43,0.23
											c-0.12-0.15-0.01-0.5,0.38-0.87c0.39-0.37,1.07-0.72,1.88-0.82c0.81-0.09,1.56,0.1,2.02,0.37
											C149.12,102.89,149.31,103.21,149.22,103.38z"/>
									</g>
								</g>
							</g>
						</g>
					</g>
				</g>
				<g>
					<g>
						<g>
							<g>
								<g>
									<g>
										<path class="st6" d="M134.64,111.45c0.1,0.62,0.7,1.05,1.35,0.96c0.65-0.09,1.09-0.66,0.99-1.28
											c-0.1-0.62-0.7-1.05-1.35-0.96C134.99,110.26,134.54,110.83,134.64,111.45z"/>
									</g>
								</g>
							</g>
						</g>
					</g>
				</g>
				<g>
					<g>
						<g>
							<g>
								<g>
									<g>
										<path class="st6" d="M147.25,108.72c0.1,0.62,0.7,1.05,1.35,0.96c0.65-0.09,1.09-0.66,0.99-1.28
											c-0.1-0.62-0.7-1.05-1.35-0.96C147.6,107.53,147.15,108.1,147.25,108.72z"/>
									</g>
								</g>
							</g>
						</g>
					</g>
				</g>
				<path class="st8" d="M145.16,120.02c-0.92-0.27-1.7,0.2-2.08,0.86c-0.37,0.66-0.28,1.57,0.25,2.11
					c0.54,0.54,1.49,0.63,2.08,0.15c0.4-0.33,0.6-0.85,0.65-1.36c0.05-0.47-0.03-0.98-0.32-1.36c-0.29-0.38-0.84-0.58-1.27-0.39"/>
				<path class="st6" d="M151,96.04c-0.65-3.16-2.83-5.86-5.48-7.71c-2.25-1.57-4.92-2.6-7.66-2.69c-2.74-0.08-5.55,0.84-7.54,2.74
					c-1.47,1.4-2.22,3.39-2.28,5.42l0.16-1.4c-0.41,1.15-0.41,2.39,0.02,3.52c0,0,0,0,0,0.01l0-0.01c0.23,0.61,0.51,1.23,0.76,1.84
					c0.7,1.75,2.06,3.22,3.74,4.07c0.78,0.39,1.63,0.65,2.5,0.61c0.87-0.04,1.74-0.41,2.27-1.1c0.75-0.99,0.66-2.35,0.54-3.58
					c0.74,1.16,1.53,2.37,2.73,3.06c1.2,0.69,2.92,0.66,3.76-0.43c0.81-1.06,0.49-2.58,0.02-3.83c0.76,1.17,1.86,2.11,3.12,2.7
					c0.7,0.32,1.52,0.54,2.23,0.23c0.6-0.26,1-0.86,1.16-1.5C151.2,97.35,151.13,96.68,151,96.04z"/>
				<g>
					<path class="st9" d="M143.77,98.66c-0.09,0-0.08-1.19-0.46-3.03c-0.39-1.81-1.3-4.38-3.45-6.27c-1.06-0.93-2.28-1.58-3.46-1.87
						c-1.18-0.29-2.31-0.26-3.22-0.08c-1.84,0.37-2.73,1.25-2.78,1.15c-0.02-0.02,0.17-0.25,0.61-0.57c0.44-0.32,1.14-0.7,2.09-0.94
						c0.95-0.23,2.14-0.31,3.41-0.03c1.27,0.28,2.58,0.96,3.69,1.94c2.27,2,3.17,4.72,3.47,6.59c0.15,0.95,0.19,1.73,0.18,2.27
						C143.85,98.36,143.81,98.66,143.77,98.66z"/>
				</g>
			</g>
		</g>
		<path class="st7" d="M235.87,215.25L197.42,200c0,0-19.7-25.83-19.29-26.33l-13.83,15.14l20.1,27.2l46.57,10.9l22.05,0.18
			C251.32,218.61,235.87,215.25,235.87,215.25z"/>
		<g>
			<g>
				<g>
					<g>
						<g>
							<path class="st10" d="M152.07,141.56l-5.24-2.03l-22.62,2.87v4l-0.65,0.08c0,0-7.03,1.28-13.86,5.38
								c-8.27,4.97-12.57,14.54-11.04,24.07c0.92,5.72,2.7,12.67,6.14,16.69c6.57,7.68,12.57-1.81,12.57-1.81s4.12,9.41,3.89,13.85
								c-0.2,3.73-1.85,11.49-2.38,13.91c-0.09,0.41,0.18,0.8,0.59,0.88l47.72,8.82l0.23-11.66l-1.52-47.97L163.8,150
								C163.8,150,163.87,141.1,152.07,141.56z"/>
						</g>
					</g>
				</g>
			</g>
			<polygon class="st10" points="163.07,146.9 181.27,173.19 166.62,191.03 			"/>
			<g>
				<path class="st6" d="M166.97,202.22c-0.04,0-0.06-0.61-0.07-1.7c-0.01-1.18-0.03-2.74-0.06-4.62c-0.09-3.9-0.31-9.28-1.09-15.18
					c-0.75-5.9-1.9-11.17-2.78-14.97c-0.43-1.83-0.79-3.35-1.06-4.5c-0.25-1.06-0.37-1.65-0.34-1.66c0.03-0.01,0.22,0.57,0.53,1.61
					c0.31,1.05,0.73,2.57,1.22,4.46c0.97,3.78,2.18,9.06,2.94,14.99c0.78,5.92,0.94,11.33,0.94,15.24
					c-0.02,1.95-0.05,3.53-0.11,4.63C167.05,201.62,167.01,202.22,166.97,202.22z"/>
			</g>
			<g>
				<path class="st2" d="M122.2,162.25c0,0.08-1.38,0.07-3.6,0.19c-2.21,0.12-5.27,0.42-8.58,1.1c-3.31,0.69-6.23,1.62-8.31,2.4
					c-2.08,0.77-3.34,1.33-3.37,1.26c-0.02-0.03,0.28-0.21,0.84-0.5c0.55-0.29,1.37-0.67,2.4-1.11c2.06-0.87,5-1.87,8.34-2.56
					c3.35-0.69,6.44-0.94,8.67-0.96c1.12-0.01,2.02,0.01,2.64,0.06C121.86,162.17,122.2,162.21,122.2,162.25z"/>
			</g>
			<g>
				<path class="st2" d="M164.35,174.28c0.01,0.07-0.85,0.28-2.27,0.49c-1.42,0.22-3.39,0.43-5.57,0.5c-2.19,0.07-4.17,0-5.6-0.12
					c-1.43-0.12-2.3-0.27-2.3-0.34c0.01-0.08,0.89-0.06,2.31-0.03c1.42,0.03,3.39,0.04,5.56-0.03c2.17-0.08,4.13-0.23,5.55-0.35
					C163.46,174.29,164.34,174.21,164.35,174.28z"/>
			</g>
			<g>
				<path class="st2" d="M172.7,162.39c0.09,0.1-1.52,1.71-3.9,3.16c-2.38,1.46-4.55,2.16-4.59,2.04c-0.06-0.14,1.98-1.05,4.32-2.48
					C170.87,163.68,172.6,162.27,172.7,162.39z"/>
			</g>
			<g>
				<path class="st2" d="M165.35,150.2c0.09,0.09-2.06,2.02-5.3,3.38c-3.23,1.38-6.11,1.58-6.11,1.46
					c-0.03-0.16,2.76-0.58,5.91-1.93C163.01,151.77,165.25,150.07,165.35,150.2z"/>
			</g>
			<g>
				<path class="st2" d="M166.34,194.64c0.01,0.03-0.32,0.21-0.95,0.5c-0.62,0.29-1.54,0.67-2.69,1.09
					c-2.3,0.85-5.58,1.79-9.29,2.37c-3.71,0.57-7.12,0.65-9.57,0.53c-1.23-0.06-2.22-0.14-2.9-0.23c-0.68-0.09-1.05-0.15-1.05-0.19
					c0.01-0.09,1.52,0.04,3.96,0.06c2.44,0.02,5.81-0.12,9.48-0.68c3.67-0.57,6.93-1.45,9.25-2.2
					C164.9,195.13,166.31,194.56,166.34,194.64z"/>
			</g>
			<g>
				<path class="st2" d="M166.71,208.19c0.01,0.02-0.14,0.1-0.43,0.24c-0.34,0.16-0.76,0.36-1.27,0.6c-1.1,0.52-2.73,1.2-4.77,1.96
					c-2.04,0.77-4.51,1.57-7.29,2.33c-2.79,0.74-5.88,1.42-9.17,1.94c-3.29,0.5-6.45,0.78-9.33,0.93c-2.88,0.11-5.48,0.1-7.65-0.01
					c-2.18-0.11-3.93-0.26-5.14-0.42c-0.55-0.08-1.01-0.14-1.39-0.19c-0.32-0.05-0.48-0.08-0.48-0.1c0-0.02,0.17-0.02,0.49,0
					c0.38,0.02,0.84,0.06,1.4,0.09c1.21,0.1,2.97,0.2,5.13,0.26c2.17,0.07,4.75,0.04,7.62-0.1c2.86-0.17,6-0.46,9.27-0.96
					c3.27-0.52,6.35-1.19,9.13-1.89c2.77-0.73,5.24-1.49,7.29-2.21c2.05-0.71,3.69-1.34,4.81-1.8c0.52-0.2,0.95-0.37,1.3-0.51
					C166.54,208.23,166.7,208.18,166.71,208.19z"/>
			</g>
		</g>
		<g>
			<g>
				<g>
					<path class="st10" d="M78.97,420.78l-5.4,24.43l-9.85,18.09c-0.71,1.3-0.17,2.94,1.18,3.56l0,0c0.76,0.35,1.62,0.31,2.34-0.11
						c4.58-2.65,21.39-12.47,21.68-14.28c0.34-2.1,7.41-25.39,7.41-25.39L78.97,420.78z"/>
				</g>
				<g class="st11">
					<path class="st12" d="M64.9,466.86l24.43-16.02l-0.25,1.03c-0.22,0.89-0.74,1.68-1.48,2.21c-1.99,1.43-7.56,5.28-20.27,12.7
						C66.58,467.2,65.67,467.24,64.9,466.86L64.9,466.86z"/>
				</g>
				<g class="st11">
					<g>
						<path class="st12" d="M86.26,441.77c-0.71,0.27-1.14,1.14-0.89,1.87c0.24,0.72,1.13,1.16,1.84,0.9
							c0.72-0.26,1.26-1.29,0.94-1.98c-0.32-0.69-1.39-1.15-2.02-0.73"/>
					</g>
				</g>
				<g>
					<g>
						<path class="st6" d="M73.06,457.6c-0.15,0.03-0.39-1.37-1.67-2.41c-1.25-1.08-2.67-1.06-2.67-1.22
							c-0.01-0.06,0.35-0.18,0.94-0.12c0.58,0.05,1.39,0.34,2.08,0.92c0.7,0.59,1.11,1.33,1.27,1.89
							C73.17,457.23,73.12,457.6,73.06,457.6z"/>
					</g>
				</g>
				<g>
					<g>
						<path class="st6" d="M70.53,460.43c-0.14,0.08-0.73-0.9-1.9-1.57c-1.15-0.69-2.3-0.73-2.3-0.89
							c-0.04-0.14,1.26-0.37,2.58,0.41C70.24,459.15,70.67,460.4,70.53,460.43z"/>
					</g>
				</g>
				<g>
					<g>
						<path class="st6" d="M77.3,454.22c-0.14,0.09-1.04-1.43-2.76-2.63c-1.71-1.23-3.43-1.56-3.4-1.72
							c-0.01-0.14,1.88-0.03,3.72,1.28C76.71,452.44,77.44,454.18,77.3,454.22z"/>
					</g>
				</g>
				<g>
					<g>
						<path class="st6" d="M79.57,446.93c-0.1,0.13-1.31-0.76-3.04-1.25c-1.73-0.52-3.22-0.41-3.23-0.58
							c-0.04-0.14,1.53-0.5,3.39,0.05C78.54,445.68,79.67,446.84,79.57,446.93z"/>
					</g>
				</g>
				<g>
					<g>
						<path class="st6" d="M81.34,439.8c-0.11,0.12-1.26-1.02-3.13-1.39c-1.86-0.41-3.37,0.17-3.42,0.02
							c-0.03-0.06,0.31-0.3,0.95-0.49c0.64-0.19,1.58-0.28,2.58-0.07c1,0.21,1.83,0.67,2.34,1.1
							C81.17,439.4,81.38,439.76,81.34,439.8z"/>
					</g>
				</g>
				<g>
					<g>
						<path class="st6" d="M78.58,437.06c-0.03-0.01-0.01-0.35,0.19-0.93c0.2-0.58,0.58-1.4,1.32-2.23c0.37-0.39,0.79-0.9,1.55-1.05
							c0.38-0.08,0.86,0.11,1.07,0.5c0.21,0.38,0.2,0.8,0.12,1.19c-0.4,1.54-2.09,2.7-3.88,2.5c-1.79-0.24-3.12-1.62-3.49-3.12
							c-0.07-0.38-0.07-0.83,0.22-1.19c0.29-0.37,0.82-0.41,1.15-0.27c0.7,0.28,1.05,0.81,1.4,1.22c0.67,0.88,1.02,1.71,1.2,2.29
							c0.18,0.58,0.2,0.92,0.17,0.93c-0.1,0.04-0.32-1.34-1.67-2.98c-0.35-0.39-0.74-0.86-1.24-1.04c-0.25-0.09-0.49-0.04-0.63,0.14
							c-0.14,0.17-0.16,0.49-0.1,0.79c0.32,1.23,1.54,2.49,3.05,2.67c1.51,0.19,2.99-0.84,3.33-2.07c0.08-0.3,0.07-0.62-0.05-0.84
							c-0.11-0.21-0.34-0.32-0.59-0.28c-0.52,0.07-0.96,0.51-1.33,0.87C78.92,435.71,78.69,437.12,78.58,437.06z"/>
					</g>
				</g>
			</g>
			<g class="st13">
				<polygon points="78.34,423.43 77.17,429.03 94.86,431.97 96.34,427.08 78.97,420.78 				"/>
			</g>
		</g>
		<g>
			<g>
				<g>
					<path class="st10" d="M158.02,429.82l-1.46,19.52c0,0,19.35,8.04,19.44,11.68l-37.96-1.47l1.03-30.51L158.02,429.82z"/>
				</g>
				<g class="st11">
					<g>
						<path class="st12" d="M144.89,447.24c-0.74,0.17-1.28,0.98-1.14,1.73c0.14,0.75,0.96,1.3,1.7,1.15
							c0.75-0.16,1.42-1.11,1.2-1.84c-0.22-0.73-1.22-1.33-1.9-1"/>
					</g>
				</g>
				<g class="st11">
					<path class="st12" d="M138.04,459.55l0.22-3.07l36.31,2.56c0,0,1.66,0.8,1.42,1.98L138.04,459.55z"/>
				</g>
				<g>
					<g>
						<path class="st6" d="M157.18,449.17c-0.01,0.19-0.94,0.23-1.88,0.79c-0.95,0.54-1.45,1.32-1.62,1.24
							c-0.17-0.04,0.15-1.14,1.29-1.8C156.12,448.74,157.23,449,157.18,449.17z"/>
					</g>
				</g>
				<g>
					<g>
						<path class="st6" d="M161.1,450.97c0.04,0.18-0.78,0.47-1.44,1.23c-0.68,0.74-0.87,1.58-1.06,1.57
							c-0.18,0.02-0.26-1.07,0.58-2C160.01,450.83,161.1,450.8,161.1,450.97z"/>
					</g>
				</g>
				<g>
					<g>
						<path class="st6" d="M163.18,455.83c-0.17,0.03-0.39-0.9,0.12-1.9c0.51-1,1.4-1.37,1.47-1.21c0.1,0.16-0.49,0.68-0.9,1.5
							C163.45,455.04,163.36,455.82,163.18,455.83z"/>
					</g>
				</g>
				<g>
					<g>
						<path class="st6" d="M157.02,444.69c-0.08,0.17-0.92-0.12-1.98-0.09c-1.05,0.01-1.88,0.33-1.97,0.17
							c-0.1-0.14,0.72-0.79,1.96-0.81C156.27,443.92,157.12,444.55,157.02,444.69z"/>
					</g>
				</g>
			</g>
			<g class="st13">
				<polygon points="157.73,433.69 157.47,437.17 138.82,436.27 138.95,432.25 				"/>
			</g>
			<g>
				<g>
					<path class="st6" d="M157.25,440.74c0,0.08-0.74,0.16-1.9-0.08c-0.58-0.12-1.26-0.34-1.97-0.69c-0.35-0.17-0.71-0.38-1.07-0.62
						c-0.17-0.12-0.37-0.24-0.56-0.47c-0.2-0.2-0.3-0.7-0.05-0.99c0.21-0.28,0.55-0.4,0.83-0.39c0.28,0,0.5,0.07,0.71,0.13
						c0.42,0.12,0.81,0.27,1.17,0.45c0.71,0.36,1.29,0.8,1.71,1.22c0.85,0.85,1.12,1.55,1.06,1.59c-0.09,0.06-0.49-0.54-1.36-1.25
						c-0.43-0.35-0.99-0.72-1.66-1.02c-0.33-0.15-0.7-0.28-1.08-0.38c-0.4-0.12-0.74-0.14-0.85,0.04c-0.04,0.07-0.05,0.09,0.03,0.21
						c0.08,0.11,0.24,0.22,0.41,0.34c0.33,0.23,0.66,0.44,0.98,0.61c0.65,0.35,1.27,0.6,1.81,0.78
						C156.54,440.56,157.25,440.64,157.25,440.74z"/>
				</g>
			</g>
			<g>
				<g>
					<path class="st6" d="M156.99,441c-0.07,0.03-0.41-0.65-0.43-1.86c-0.01-0.6,0.08-1.32,0.34-2.07c0.13-0.38,0.31-0.76,0.53-1.14
						c0.24-0.37,0.53-0.86,1.25-0.91c0.38,0,0.68,0.31,0.77,0.56c0.12,0.26,0.13,0.48,0.17,0.7c0.05,0.45,0.03,0.88-0.05,1.28
						c-0.15,0.8-0.51,1.46-0.89,1.93c-0.78,0.95-1.56,1.15-1.58,1.08c-0.06-0.1,0.6-0.43,1.21-1.35c0.3-0.46,0.57-1.06,0.67-1.76
						c0.05-0.35,0.06-0.72,0.01-1.1c-0.04-0.41-0.18-0.74-0.34-0.7c-0.19-0.01-0.52,0.28-0.69,0.6c-0.21,0.33-0.38,0.67-0.51,1.01
						c-0.26,0.68-0.39,1.33-0.44,1.88C156.93,440.27,157.1,440.97,156.99,441z"/>
				</g>
			</g>
		</g>
		<g>
			<path class="st6" d="M118.72,219.3c0,0-6.03,0.26-10,20.79c-3.97,20.52-34.49,186.79-34.49,186.79l22.11,0.2L138.04,269
				l-2.77,162.96l22.46,1.72c0,0,16.85-180.29,17.01-190.78c0.2-13.08-7.31-26.31-7.31-26.31L118.72,219.3z"/>
			<g>
				<path class="st9" d="M149.11,217.55c0.14,0.03-2.15,11.75-5.12,26.18c-2.97,14.43-5.49,26.11-5.63,26.08
					c-0.14-0.03,2.15-11.75,5.12-26.19C146.44,229.2,148.97,217.52,149.11,217.55z"/>
			</g>
			<g>
				<path class="st9" d="M152.55,220.48c-0.04-0.05,0.6-0.24,1.28,0.37c0.32,0.3,0.63,0.79,0.6,1.41c-0.01,0.64-0.49,1.25-1.13,1.52
					c-0.63,0.27-1.41,0.19-1.88-0.25c-0.47-0.42-0.6-0.99-0.59-1.42c0.04-0.92,0.62-1.24,0.63-1.18c0.07,0.05-0.33,0.43-0.26,1.17
					c0.03,0.35,0.19,0.79,0.53,1.06c0.33,0.28,0.88,0.34,1.36,0.13c0.49-0.21,0.83-0.63,0.86-1.07c0.04-0.44-0.16-0.85-0.39-1.12
					C153.09,220.54,152.54,220.56,152.55,220.48z"/>
			</g>
			<g>
				<path class="st9" d="M151.6,228.6c-0.01-0.06,0.62,0.02,0.97,0.83c0.15,0.38,0.22,0.94-0.06,1.47
					c-0.28,0.55-0.96,0.87-1.62,0.81c-0.66-0.04-1.29-0.47-1.48-1.05c-0.2-0.57-0.04-1.11,0.17-1.46c0.47-0.75,1.11-0.73,1.09-0.67
					c0.03,0.08-0.47,0.2-0.76,0.84c-0.14,0.31-0.21,0.74-0.04,1.12c0.15,0.38,0.58,0.67,1.07,0.71c0.5,0.04,0.96-0.18,1.17-0.53
					c0.22-0.35,0.22-0.79,0.13-1.11C152.03,228.87,151.55,228.67,151.6,228.6z"/>
			</g>
			<g>
				<path class="st9" d="M130.41,220.68c0.03,0.01-0.05,0.38-0.26,1.03c-0.21,0.65-0.59,1.57-1.17,2.65c-1.14,2.15-3.27,4.93-6.42,7
					c-3.15,2.08-6.54,2.93-8.97,3.13c-1.22,0.11-2.21,0.09-2.89,0.03c-0.68-0.06-1.05-0.13-1.05-0.16c0-0.1,1.51,0.07,3.9-0.23
					c2.38-0.29,5.66-1.18,8.72-3.2c3.06-2.02,5.18-4.68,6.38-6.75C129.88,222.1,130.32,220.65,130.41,220.68z"/>
			</g>
			<g>
				<path class="st9" d="M173.43,235.27c-0.02,0.03-0.26-0.11-0.66-0.4c-0.41-0.28-0.97-0.74-1.6-1.37
					c-1.27-1.25-2.78-3.28-3.77-5.84c-0.98-2.56-1.23-5.08-1.12-6.86c0.05-0.89,0.15-1.61,0.27-2.09c0.11-0.49,0.19-0.75,0.22-0.74
					c0.09,0.02-0.12,1.09-0.12,2.84c-0.01,1.74,0.29,4.17,1.24,6.66c0.96,2.48,2.37,4.48,3.55,5.77
					C172.6,234.53,173.48,235.19,173.43,235.27z"/>
			</g>
		</g>
	</g>
	<g>
		<g>
			<g>
				<g>
					<g>
						<path class="st7" d="M109.93,179.76l9.82,0.54c0.62,3.18,2.78,8.05,2.78,8.05c7.91-13.72,14.04-32.11,15.56-39.5
							c-0.22-0.74-0.48-1.55-0.81-2.47c-0.38-1.05-0.05-3.05,0.12-4.16c0.27-1.65,0.73-3.86,0.86-4.88
							c0.42-3.12,0.92-3.61,2.01-3.26c1.48,0.48-0.61,8.77,0.61,8.95c0.65,0.1,1.45-2.74,1.68-5.07c0.23-2.33,1.29-9.5,2.06-9.97
							c1.13-0.7,2.11,0.41,1.83,2.73c-0.29,2.35-0.65,9.35,0.58,9.45c1.21,0.09,2.23-11.79,2.23-11.79s-0.19-2.59,1.23-2.52
							c2.57,0.11,0.56,12.64,0.34,13.83c-0.15,0.83,1.18,0.98,1.3,0.08c0.12-0.92,0.74-11.88,3.36-11.79
							c2.01,0.07-1.56,10.32-0.43,12.7c1.13,2.38,1.91-8.07,3.83-7.93c0.71,0.05,1.24,0.19-0.07,6.11
							c-0.71,3.18-2.78,9.02-4.59,13.86c-3.04,16.4-16.38,68.86-37.31,59.26c-11.71-5.37-17.17-31.98-17.17-31.98L109.93,179.76z"/>
					</g>
				</g>
				<g>
					<g>
						<g>
							<path class="st8" d="M154.24,152.71c-0.01,0,0.02-0.13,0.1-0.36c0.09-0.26,0.21-0.61,0.35-1.03
								c0.33-0.95,0.79-2.27,1.37-3.96c0.58-1.72,1.3-3.83,2.01-6.31c0.36-1.24,0.66-2.58,0.94-4.01c0.13-0.72,0.27-1.46,0.35-2.22
								c0.04-0.38,0.08-0.77,0.05-1.14c-0.03-0.39-0.09-0.71-0.4-0.71c-0.32-0.09-0.53,0.18-0.75,0.51c-0.2,0.33-0.36,0.72-0.5,1.11
								c-0.28,0.79-0.5,1.63-0.72,2.48c-0.22,0.86-0.42,1.74-0.68,2.64c-0.16,0.45-0.23,0.89-0.6,1.38
								c-0.07,0.06-0.13,0.14-0.27,0.17c-0.15,0.04-0.27-0.02-0.38-0.08c-0.14-0.13-0.21-0.26-0.28-0.38
								c-0.11-0.25-0.18-0.51-0.21-0.76c-0.18-2.01,0.28-3.95,0.59-5.96c0.17-1,0.35-2.02,0.49-3.05c0.06-0.51,0.12-1.03,0.12-1.54
								c0.02-0.47-0.06-1.11-0.27-1.2c-0.26-0.1-0.72,0.19-0.96,0.62c-0.28,0.42-0.48,0.91-0.65,1.42c-0.35,1.02-0.57,2.1-0.77,3.2
								c-0.19,1.1-0.34,2.22-0.46,3.36c-0.06,0.57-0.11,1.14-0.17,1.72l-0.08,0.87c-0.02,0.24-0.02,0.73-0.4,1.01
								c-0.35,0.26-0.81,0.29-1.18,0.05c-0.19-0.12-0.33-0.34-0.36-0.57c-0.02-0.11,0-0.22,0.01-0.32l0.04-0.21
								c0.09-0.58,0.18-1.16,0.27-1.75c0.16-1.17,0.31-2.36,0.42-3.56c0.11-1.2,0.2-2.41,0.21-3.62c0-1.2-0.01-2.46-0.35-3.56
								c-0.11-0.33-0.3-0.64-0.5-0.72c-0.21-0.08-0.52,0-0.68,0.22c-0.35,0.49-0.4,1.29-0.38,1.94l0,0.03l0,0.02
								c-0.21,2.35-0.47,4.66-0.81,6.93c-0.17,1.13-0.36,2.26-0.65,3.37c-0.07,0.28-0.16,0.56-0.25,0.83
								c-0.13,0.28-0.17,0.56-0.57,0.86c-0.34,0.16-0.6-0.02-0.73-0.16c-0.15-0.15-0.21-0.3-0.27-0.45
								c-0.12-0.29-0.17-0.58-0.22-0.86c-0.32-2.25-0.19-4.42-0.06-6.55c0.04-1.07,0.3-2.13,0.16-3.07
								c-0.07-0.46-0.25-0.93-0.56-1.14c-0.15-0.1-0.33-0.12-0.51-0.08c-0.09,0.03-0.19,0.06-0.28,0.12
								c-0.09,0.08-0.07,0.05-0.14,0.17c-0.39,0.82-0.58,1.85-0.79,2.78c-0.2,0.96-0.36,1.91-0.52,2.85
								c-0.15,0.94-0.29,1.87-0.41,2.78c-0.12,0.91-0.19,1.83-0.36,2.72c-0.17,0.89-0.38,1.76-0.7,2.59
								c-0.08,0.21-0.18,0.41-0.29,0.61c-0.14,0.19-0.22,0.43-0.6,0.55c-0.22,0.06-0.41-0.09-0.51-0.21
								c-0.08-0.13-0.12-0.25-0.16-0.37c-0.05-0.23-0.07-0.45-0.08-0.67c-0.02-1.7,0.23-3.27,0.32-4.78
								c0.05-0.75,0.08-1.49-0.01-2.17c-0.04-0.32-0.15-0.7-0.33-0.77c-0.27-0.11-0.61-0.16-0.81-0.02
								c-0.44,0.32-0.6,1.05-0.74,1.64c-0.14,0.62-0.21,1.23-0.32,1.82c-0.42,2.37-0.86,4.4-1.07,6.06c-0.1,0.83-0.14,1.58-0.03,2.2
								c0.14,0.61,0.34,1.14,0.46,1.56c0.12,0.4,0.21,0.72,0.29,0.97c0.06,0.22,0.09,0.33,0.08,0.33c-0.01,0-0.06-0.1-0.14-0.32
								c-0.09-0.24-0.2-0.56-0.34-0.95c-0.14-0.43-0.35-0.91-0.52-1.57c-0.13-0.65-0.11-1.42-0.03-2.26
								c0.18-1.69,0.59-3.71,0.97-6.08c0.11-0.59,0.16-1.22,0.3-1.85c0.07-0.32,0.14-0.64,0.26-0.97c0.13-0.32,0.26-0.68,0.63-0.92
								c0.39-0.24,0.82-0.15,1.18-0.02c0.47,0.27,0.49,0.72,0.57,1.07c0.1,0.75,0.07,1.5,0.03,2.26c-0.07,1.52-0.31,3.11-0.28,4.73
								c0.01,0.2,0.03,0.39,0.07,0.57c0.04,0.19,0.14,0.27,0.12,0.23c0.04,0.01,0.19-0.17,0.27-0.32c0.09-0.17,0.18-0.36,0.25-0.55
								c0.3-0.78,0.5-1.63,0.66-2.5c0.17-0.86,0.22-1.77,0.34-2.69c0.11-0.92,0.25-1.85,0.39-2.8c0.15-0.95,0.31-1.9,0.51-2.87
								c0.22-0.97,0.36-1.94,0.84-2.95c0.03-0.1,0.24-0.33,0.35-0.39c0.13-0.08,0.27-0.13,0.42-0.18c0.31-0.08,0.68-0.04,0.96,0.15
								c0.55,0.39,0.72,0.99,0.82,1.53c0.08,0.55,0.06,1.1-0.01,1.63c-0.06,0.51-0.1,1.04-0.14,1.56c-0.12,2.09-0.24,4.28,0.07,6.41
								c0.05,0.26,0.1,0.52,0.19,0.74c0.05,0.1,0.1,0.21,0.15,0.26c0.03,0.04,0.04,0.03,0.05,0.04l0,0l0,0
								c-0.02,0.23,0,0.05-0.01,0.1c0-0.04-0.01-0.04-0.04-0.09c0.05-0.04,0.21-0.32,0.29-0.55c0.09-0.25,0.17-0.51,0.23-0.78
								c0.27-1.07,0.46-2.18,0.63-3.31c0.33-2.25,0.59-4.56,0.8-6.89l0,0.05c-0.01-0.77-0.02-1.57,0.51-2.37
								c0.31-0.39,0.87-0.61,1.4-0.41c0.52,0.24,0.71,0.71,0.86,1.09c0.4,1.28,0.38,2.53,0.39,3.77c-0.02,1.24-0.1,2.46-0.22,3.67
								c-0.12,1.21-0.26,2.4-0.43,3.59c-0.09,0.59-0.18,1.18-0.27,1.77c-0.07,0.37-0.06,0.38,0.05,0.49
								c0.12,0.09,0.35,0.08,0.47-0.02c0.13-0.09,0.14-0.26,0.17-0.58l0.08-0.87c0.06-0.58,0.12-1.16,0.17-1.73
								c0.13-1.15,0.28-2.28,0.48-3.4c0.2-1.12,0.43-2.22,0.8-3.29c0.19-0.53,0.4-1.06,0.73-1.55c0.17-0.24,0.36-0.48,0.64-0.66
								c0.29-0.17,0.61-0.32,1.04-0.15c0.41,0.22,0.48,0.6,0.55,0.88c0.04,0.29,0.06,0.58,0.05,0.85c-0.01,0.55-0.07,1.08-0.14,1.61
								c-0.14,1.05-0.33,2.07-0.5,3.07c-0.33,1.99-0.78,3.97-0.62,5.8c0.02,0.22,0.08,0.43,0.16,0.61c0.05,0.09,0.1,0.17,0.13,0.2
								c0-0.01-0.01-0.02-0.02,0.04c-0.01,0.08,0-0.02-0.01,0c-0.04-0.06-0.01-0.04,0.01-0.07c0.21-0.26,0.36-0.76,0.49-1.17
								c0.26-0.87,0.47-1.76,0.69-2.62c0.22-0.86,0.45-1.71,0.75-2.52c0.15-0.41,0.31-0.81,0.55-1.19c0.13-0.19,0.25-0.38,0.46-0.53
								c0.09-0.08,0.23-0.14,0.36-0.18c0.16-0.02,0.28-0.02,0.38,0c0.24,0.01,0.55,0.22,0.63,0.46c0.1,0.23,0.12,0.45,0.13,0.66
								c0.02,0.42-0.03,0.82-0.07,1.21c-0.09,0.78-0.24,1.52-0.38,2.24c-0.29,1.44-0.61,2.8-0.99,4.03
								c-0.75,2.48-1.5,4.58-2.12,6.29c-0.62,1.71-1.13,3.03-1.48,3.92c-0.17,0.42-0.3,0.75-0.41,1.01
								C154.3,152.6,154.25,152.71,154.24,152.71z"/>
						</g>
					</g>
				</g>
			</g>
			<g>
				<path class="st10" d="M99.65,180.89c1.9,6.7,5.61,17.06,9.6,27.98c0.58,1.58,2.77,1.68,3.49,0.16l9.78-20.68
					c0,0-2.36-16.99-2.16-16.39c0.2,0.6-20.19,2.2-20.19,2.2L99.65,180.89z"/>
			</g>
		</g>
		<g>
			<path class="st2" d="M121.69,177.56c0.02,0.08-1.22,0.44-3.15,1.18c-1.94,0.74-4.56,1.91-7.26,3.54c-2.7,1.64-4.95,3.42-6.5,4.8
				c-1.55,1.38-2.44,2.31-2.5,2.25c-0.03-0.02,0.17-0.28,0.55-0.73c0.37-0.45,0.96-1.06,1.71-1.79c1.5-1.46,3.74-3.31,6.48-4.98
				c2.74-1.66,5.42-2.79,7.4-3.44c0.99-0.33,1.81-0.56,2.38-0.68C121.36,177.58,121.68,177.52,121.69,177.56z"/>
		</g>
		<g>
			<path class="st6" d="M125.57,182.72c-0.05,0.04-0.72-0.75-1.63-2.14c-0.91-1.39-2.05-3.4-3.02-5.74
				c-0.97-2.35-1.59-4.57-1.93-6.2c-0.34-1.63-0.42-2.65-0.36-2.66c0.08-0.01,0.29,0.99,0.72,2.58c0.42,1.59,1.09,3.77,2.05,6.08
				c0.96,2.32,2.03,4.33,2.86,5.75C125.07,181.81,125.63,182.67,125.57,182.72z"/>
		</g>
	</g>
	<g>
		<path class="st6" d="M132.09,91.1c-3.42,5.53-4.15,12.69-1.91,18.81c1,2.75,2.6,5.46,2.31,8.38c-0.3,2.99-2.56,5.81-1.76,8.7
			c0.47,1.71,1.94,2.98,2.5,4.66c0.66,1.97-0.03,4.11-0.34,6.16c-0.8,5.24,0.87,10.5,1.29,15.79c0.41,5.28-1.01,11.47-5.72,13.77
			c-1.43,0.7-3.3,0.9-4.49-0.17c-1.51-1.36-1.09-3.79-0.68-5.79c4.14-20.02-8.65-39.52-5.73-59.76c0.47-3.24,2.28-8.75,4.62-11.02
			c2.34-2.27,8.79-1.99,11,0.4"/>
		<g>
			<path class="st9" d="M112.39,149.12c-0.04-0.03,0.6-0.72,1.5-2.14c0.9-1.41,2.02-3.61,2.61-6.55c0.29-1.47,0.41-3.1,0.31-4.86
				c-0.08-1.76-0.32-3.66-0.21-5.68c0.04-1.01,0.26-2.05,0.57-3.06c0.35-1.01,0.82-1.99,1.37-2.94c1.12-1.89,2.54-3.65,3.83-5.54
				c1.3-1.88,2.37-3.86,2.72-5.96c0.35-2.1-0.03-4.18-0.35-6.14c-0.35-1.96-0.59-3.89-0.44-5.68c0.11-1.79,0.47-3.44,0.96-4.88
				c0.98-2.89,2.43-4.95,3.53-6.22c0.55-0.64,1.02-1.11,1.36-1.4c0.33-0.3,0.51-0.44,0.53-0.43c0.04,0.04-0.67,0.65-1.73,1.96
				c-1.04,1.3-2.42,3.35-3.34,6.21c-0.45,1.42-0.78,3.04-0.88,4.79c-0.12,1.76,0.12,3.62,0.48,5.58c0.33,1.95,0.74,4.08,0.38,6.3
				c-0.36,2.21-1.48,4.28-2.79,6.17c-1.31,1.91-2.73,3.66-3.82,5.5c-0.55,0.92-1,1.87-1.34,2.84c-0.3,0.97-0.52,1.95-0.57,2.94
				c-0.13,1.96,0.1,3.85,0.16,5.63c0.09,1.78-0.06,3.47-0.38,4.96c-0.65,2.99-1.85,5.2-2.8,6.59c-0.48,0.7-0.9,1.21-1.19,1.54
				C112.57,148.96,112.41,149.13,112.39,149.12z"/>
		</g>
		<g>
			<path class="st9" d="M102.91,150.61c-0.02-0.01,0.09-0.24,0.31-0.67c0.25-0.47,0.57-1.1,0.97-1.88c0.84-1.63,2.09-3.98,3.32-7.01
				c1.21-3.02,2.41-6.8,2.44-11.11c0.01-1.07-0.07-2.17-0.24-3.28c-0.17-1.11-0.43-2.24-0.6-3.43c-0.16-1.18-0.24-2.44,0.08-3.68
				c0.31-1.25,1.09-2.35,2.04-3.21c1.89-1.71,4.16-2.83,5.33-4.84c1.2-1.97,1.47-4.29,1.77-6.41c0.26-2.15,0.67-4.22,1.38-6.04
				c0.68-1.83,1.59-3.42,2.54-4.77c1.91-2.72,4.03-4.43,5.56-5.45c0.77-0.51,1.39-0.86,1.83-1.07c0.43-0.21,0.67-0.32,0.67-0.3
				c0.03,0.05-0.9,0.49-2.39,1.54c-1.48,1.06-3.53,2.79-5.37,5.49c-0.91,1.34-1.79,2.91-2.43,4.71c-0.67,1.79-1.06,3.8-1.31,5.95
				c-0.29,2.13-0.54,4.5-1.81,6.62c-1.27,2.16-3.63,3.31-5.41,4.95c-0.9,0.82-1.6,1.82-1.89,2.96c-0.29,1.14-0.23,2.33-0.07,3.48
				c0.16,1.16,0.41,2.29,0.58,3.42c0.17,1.14,0.25,2.26,0.23,3.36c-0.07,4.41-1.32,8.22-2.58,11.25c-1.29,3.04-2.59,5.36-3.48,6.96
				c-0.44,0.76-0.79,1.37-1.06,1.83C103.06,150.41,102.93,150.62,102.91,150.61z"/>
		</g>
	</g>
</g>
<g id="Plant">
	<g>
		<g>
			<g>
				<g>
					<g>
						<path class="st6" d="M433.77,433.18c-0.01-0.01,0.05-0.15,0.18-0.42c0.14-0.3,0.33-0.7,0.57-1.21
							c0.48-1.07,1.11-2.68,1.66-4.84c1.1-4.3,1.49-10.87-0.14-18.68c-0.76-3.91-1.98-8.1-3.46-12.54
							c-1.47-4.45-3.17-9.18-4.56-14.28c-1.38-5.09-2.46-10.62-2.25-16.42c0.21-5.81,1.93-11.61,3.82-17.38
							c1.89-5.78,3.84-11.43,4.42-17.11c0.66-5.67-0.55-11.24-3.14-15.8c-2.5-4.61-5.65-8.56-8.01-12.64
							c-2.39-4.07-3.89-8.26-4.81-12.15c-1.79-7.85-1.16-14.47-0.3-18.83c0.93-4.38,1.96-6.65,1.96-6.65c0.01,0-0.03,0.15-0.12,0.44
							c-0.1,0.31-0.23,0.74-0.4,1.27c-0.35,1.12-0.8,2.79-1.22,4.98c-0.78,4.35-1.34,10.92,0.49,18.69c0.94,3.85,2.44,7.98,4.83,12
							c2.35,4.04,5.51,7.96,8.07,12.63c2.64,4.61,3.91,10.36,3.24,16.13c-0.59,5.78-2.55,11.47-4.44,17.24
							c-1.89,5.77-3.59,11.5-3.8,17.21c-0.21,5.71,0.84,11.18,2.2,16.25c1.37,5.08,3.05,9.81,4.5,14.27
							c1.47,4.46,2.67,8.68,3.41,12.62c1.59,7.86,1.13,14.5-0.05,18.81c-0.6,2.16-1.26,3.77-1.78,4.83
							c-0.26,0.5-0.47,0.89-0.62,1.19C433.86,433.05,433.78,433.19,433.77,433.18z"/>
					</g>
				</g>
			</g>
			<g>
				<g>
					<g>
						<path class="st10" d="M426.06,305.89c0,0-4.79-15.3,3.8-24.26c0.3-0.31,0.83-0.17,0.91,0.26
							C431.23,284.41,431.8,292.11,426.06,305.89z"/>
					</g>
				</g>
				<g>
					<g>
						<g>
							<path class="st6" d="M428.93,286.72c0.08,0.02-0.06,1.09-0.32,2.82c-0.31,1.94-0.68,4.23-1.09,6.75
								c-0.4,2.52-0.76,4.81-1.07,6.75c-0.26,1.73-0.42,2.8-0.51,2.79c-0.08-0.01-0.07-1.09,0.09-2.84c0.16-1.75,0.47-4.15,0.9-6.79
								c0.43-2.64,0.89-5.02,1.27-6.73C428.56,287.75,428.85,286.7,428.93,286.72z"/>
						</g>
					</g>
				</g>
			</g>
			<g>
				<g>
					<g>
						<path class="st10" d="M431.68,341.98c0,0,2.93-15.77,14.71-19.67c0.41-0.14,0.81,0.24,0.68,0.66
							C446.29,325.42,443.2,332.49,431.68,341.98z"/>
					</g>
				</g>
				<g>
					<g>
						<g>
							<path class="st6" d="M443.18,326.38c0.06,0.05-0.56,0.94-1.61,2.35c-1.19,1.57-2.58,3.42-4.12,5.46
								c-1.53,2.04-2.92,3.89-4.1,5.47c-1.04,1.41-1.68,2.28-1.75,2.23c-0.07-0.04,0.45-1,1.41-2.47c0.96-1.47,2.36-3.45,3.97-5.58
								c1.62-2.13,3.14-4.02,4.27-5.36C442.37,327.12,443.12,326.33,443.18,326.38z"/>
						</g>
					</g>
				</g>
			</g>
			<g>
				<g>
					<g>
						<path class="st10" d="M428.5,381.53c0,0-1.78-15.94,8.36-23.09c0.36-0.25,0.85,0,0.84,0.43
							C437.67,361.44,436.76,369.1,428.5,381.53z"/>
					</g>
				</g>
				<g>
					<g>
						<g>
							<path class="st6" d="M434.97,363.26c0.08,0.03-0.26,1.06-0.85,2.71c-0.68,1.85-1.48,4.02-2.36,6.42
								c-0.87,2.4-1.67,4.57-2.34,6.42c-0.59,1.65-0.95,2.67-1.03,2.65c-0.07-0.02,0.14-1.09,0.63-2.78
								c0.49-1.69,1.25-3.99,2.18-6.5c0.93-2.51,1.83-4.76,2.53-6.37C434.42,364.21,434.9,363.23,434.97,363.26z"/>
						</g>
					</g>
				</g>
			</g>
			<g>
				<g>
					<g>
						<path class="st10" d="M437.37,421.31c0,0-1.21-15.99,9.18-22.78c0.36-0.24,0.85,0.03,0.83,0.46
							C447.26,401.56,446.08,409.19,437.37,421.31z"/>
					</g>
				</g>
				<g>
					<g>
						<g>
							<path class="st6" d="M444.49,403.29c0.08,0.03-0.3,1.05-0.95,2.68c-0.75,1.82-1.62,3.96-2.59,6.33
								c-0.96,2.37-1.83,4.51-2.57,6.33c-0.65,1.62-1.04,2.63-1.12,2.61c-0.07-0.02,0.18-1.08,0.73-2.75
								c0.55-1.67,1.39-3.94,2.41-6.42c1.02-2.47,2-4.69,2.75-6.27C443.91,404.21,444.42,403.25,444.49,403.29z"/>
						</g>
					</g>
				</g>
			</g>
			<g>
				<g>
					<g>
						<path class="st10" d="M419.18,292.44c0,0-14.21-7.42-14.49-19.83c-0.01-0.44,0.47-0.71,0.83-0.46
							C407.63,273.61,413.49,278.65,419.18,292.44z"/>
					</g>
				</g>
				<g>
					<g>
						<g>
							<path class="st6" d="M407.64,276.87c0.07-0.05,0.73,0.81,1.77,2.22c1.15,1.6,2.51,3.47,4.01,5.54
								c1.5,2.07,2.86,3.93,4.02,5.53c1.04,1.41,1.69,2.27,1.62,2.33c-0.06,0.05-0.82-0.72-1.95-2.07
								c-1.13-1.35-2.61-3.26-4.17-5.44c-1.56-2.17-2.92-4.18-3.87-5.65C408.12,277.86,407.58,276.92,407.64,276.87z"/>
						</g>
					</g>
				</g>
			</g>
			<g>
				<g>
					<g>
						<path class="st10" d="M434.45,325.31c0,0-14.64-6.55-15.67-18.91c-0.04-0.43,0.43-0.73,0.8-0.51
							C421.77,307.22,427.92,311.88,434.45,325.31z"/>
					</g>
				</g>
				<g>
					<g>
						<g>
							<path class="st6" d="M421.98,310.47c0.07-0.05,0.78,0.77,1.9,2.11c1.25,1.52,2.72,3.31,4.34,5.29
								c1.63,1.97,3.1,3.75,4.35,5.27c1.12,1.34,1.82,2.17,1.76,2.23c-0.06,0.05-0.87-0.67-2.07-1.95c-1.21-1.28-2.8-3.1-4.5-5.17
								c-1.69-2.07-3.17-3.99-4.21-5.41C422.51,311.43,421.92,310.52,421.98,310.47z"/>
						</g>
					</g>
				</g>
			</g>
			<g>
				<g>
					<g>
						<path class="st10" d="M426.02,361.97c0,0-10.05-12.49-5.34-23.97c0.17-0.4,0.71-0.46,0.94-0.09
							C422.98,340.09,426.33,347.05,426.02,361.97z"/>
					</g>
				</g>
				<g>
					<g>
						<g>
							<path class="st6" d="M421.68,343.08c0.08-0.01,0.35,1.04,0.73,2.75c0.42,1.93,0.91,4.18,1.45,6.68
								c0.55,2.49,1.05,4.75,1.47,6.67c0.39,1.7,0.63,2.76,0.55,2.79c-0.07,0.02-0.46-0.99-0.96-2.68
								c-0.49-1.69-1.08-4.04-1.65-6.65c-0.56-2.62-1-5-1.28-6.73C421.72,344.18,421.6,343.1,421.68,343.08z"/>
						</g>
					</g>
				</g>
			</g>
			<g>
				<g>
					<g>
						<path class="st10" d="M435.98,405.11c0,0-14.53-6.79-15.35-19.17c-0.03-0.43,0.44-0.73,0.81-0.49
							C423.61,386.81,429.68,391.58,435.98,405.11z"/>
					</g>
				</g>
				<g>
					<g>
						<g>
							<path class="st6" d="M423.77,390.06c0.07-0.05,0.77,0.78,1.87,2.14c1.22,1.54,2.66,3.36,4.25,5.36c1.59,2,3.03,3.8,4.26,5.34
								c1.1,1.36,1.78,2.2,1.72,2.26c-0.06,0.05-0.86-0.69-2.04-1.98c-1.18-1.3-2.75-3.15-4.41-5.25c-1.66-2.1-3.1-4.04-4.11-5.48
								C424.28,391.03,423.7,390.11,423.77,390.06z"/>
						</g>
					</g>
				</g>
			</g>
			<g>
				<g>
					<g>
						<g>
							<path class="st6" d="M464.91,342.07c0.01,0,0.02,0.12,0.02,0.35c-0.01,0.28-0.02,0.62-0.03,1.03
								c-0.04,0.96-0.1,2.26-0.17,3.89c-0.19,3.42-0.45,8.18-0.76,13.88l0,0.01l0,0.02c-1.04,5.8-3.99,12.23-7.96,18.48
								c-2.91,4.6-5.96,8.78-8.6,12.67c-2.65,3.88-4.89,7.47-6.44,10.65c-1.57,3.18-2.48,5.91-3.01,7.82
								c-0.26,0.96-0.45,1.7-0.56,2.22c-0.12,0.51-0.19,0.78-0.21,0.77c-0.02,0,0.01-0.28,0.09-0.8c0.07-0.52,0.23-1.28,0.45-2.25
								c0.47-1.94,1.33-4.71,2.86-7.94c1.52-3.23,3.74-6.87,6.37-10.78c2.61-3.92,5.65-8.1,8.55-12.68
								c3.95-6.21,6.89-12.55,7.96-18.26l0,0.03c0.4-5.7,0.73-10.46,0.97-13.87c0.13-1.62,0.24-2.92,0.31-3.88
								c0.04-0.41,0.07-0.74,0.1-1.02C464.88,342.18,464.9,342.06,464.91,342.07z"/>
						</g>
					</g>
				</g>
				<g>
					<g>
						<g>
							<path class="st10" d="M456.26,378.53c0,0,6.15-14.81-1.59-24.51c-0.27-0.34-0.81-0.24-0.93,0.18
								C453.06,356.68,451.79,364.29,456.26,378.53z"/>
						</g>
					</g>
					<g>
						<g>
							<g>
								<path class="st6" d="M455.14,359.19c0.08-0.01,0.27,1.06,0.49,2.8c0.22,1.74,0.46,4.15,0.65,6.82
									c0.19,2.67,0.28,5.09,0.28,6.85c0,1.76-0.09,2.84-0.17,2.84c-0.09,0-0.15-1.08-0.25-2.83c-0.13-1.96-0.29-4.27-0.46-6.82
									c-0.18-2.55-0.34-4.86-0.48-6.82C455.1,360.28,455.06,359.2,455.14,359.19z"/>
							</g>
						</g>
					</g>
					<g class="st13">
						<g>
							<path d="M456.26,378.53c0,0,6.15-14.81-1.59-24.51c-0.27-0.34-0.81-0.24-0.93,0.18
								C453.06,356.68,451.79,364.29,456.26,378.53z"/>
						</g>
					</g>
				</g>
				<g>
					<g>
						<g>
							<path class="st10" d="M437.21,414.22c0,0,4.93-15.26-3.57-24.3c-0.3-0.32-0.83-0.17-0.91,0.25
								C432.25,392.69,431.6,400.39,437.21,414.22z"/>
						</g>
					</g>
					<g>
						<g>
							<g>
								<path class="st6" d="M434.52,395.02c0.08-0.02,0.36,1.04,0.71,2.75c0.36,1.72,0.8,4.1,1.2,6.74
									c0.41,2.64,0.69,5.05,0.84,6.8c0.14,1.75,0.14,2.84,0.06,2.85c-0.09,0.01-0.23-1.07-0.48-2.8
									c-0.29-1.95-0.63-4.23-1.01-6.76c-0.38-2.53-0.73-4.81-1.03-6.76C434.57,396.12,434.44,395.04,434.52,395.02z"/>
							</g>
						</g>
					</g>
					<g class="st13">
						<g>
							<path d="M437.21,414.22c0,0,4.93-15.26-3.57-24.3c-0.3-0.32-0.83-0.17-0.91,0.25C432.25,392.69,431.6,400.39,437.21,414.22z"
								/>
						</g>
					</g>
				</g>
				<g>
					<g>
						<g>
							<path class="st10" d="M464.1,360.44c0,0,13.14-9.2,11.81-21.53c-0.05-0.43-0.56-0.64-0.88-0.35
								C473.12,340.28,467.97,346.02,464.1,360.44z"/>
						</g>
					</g>
					<g class="st13">
						<g>
							<path d="M464.1,360.44c0,0,13.14-9.2,11.81-21.53c-0.05-0.43-0.56-0.64-0.88-0.35C473.12,340.28,467.97,346.02,464.1,360.44z
								"/>
						</g>
					</g>
					<g>
						<g>
							<g>
								<path class="st6" d="M473.53,343.51c0.07,0.04-0.34,1.04-1.09,2.63c-0.75,1.58-1.84,3.75-3.11,6.1
									c-1.27,2.36-2.49,4.45-3.44,5.93c-0.95,1.48-1.6,2.35-1.67,2.3c-0.07-0.05,0.46-0.99,1.3-2.52c0.94-1.73,2.05-3.76,3.27-6
									c1.22-2.25,2.32-4.28,3.26-6.01C472.91,344.41,473.46,343.47,473.53,343.51z"/>
							</g>
						</g>
					</g>
				</g>
				<g>
					<g>
						<g>
							<path class="st10" d="M442.51,399.09c0,0,15.84-2.47,20.09-14.13c0.15-0.41-0.22-0.82-0.64-0.7
								C459.49,384.96,452.33,387.85,442.51,399.09z"/>
						</g>
					</g>
					<g class="st13">
						<g>
							<path d="M442.51,399.09c0,0,15.84-2.47,20.09-14.13c0.15-0.41-0.22-0.82-0.64-0.7C459.49,384.96,452.33,387.85,442.51,399.09
								z"/>
						</g>
					</g>
					<g>
						<g>
							<g>
								<path class="st6" d="M458.43,388.05c0.05,0.07-0.77,0.78-2.14,1.88c-1.37,1.09-3.3,2.56-5.48,4.11
									c-2.18,1.56-4.2,2.9-5.7,3.81c-1.5,0.91-2.47,1.4-2.51,1.33c-0.04-0.08,0.85-0.69,2.28-1.69c1.61-1.14,3.5-2.47,5.58-3.94
									c2.08-1.48,3.97-2.82,5.57-3.96C457.47,388.58,458.38,387.98,458.43,388.05z"/>
							</g>
						</g>
					</g>
				</g>
			</g>
		</g>
		<g>
			<g>
				<polygon class="st9" points="427.39,428.25 422.77,459.35 451.57,459.35 447.84,428.25 				"/>
			</g>
		</g>
		<g>
			<g>
				<g>
					<path class="st6" d="M448.99,437.88c0,0.17-5.2,0.3-11.61,0.3c-6.42,0-11.61-0.13-11.61-0.3c0-0.17,5.2-0.3,11.61-0.3
						C443.79,437.58,448.99,437.72,448.99,437.88z"/>
				</g>
			</g>
		</g>
		<g>
			<g>
				<g>
					<path class="st6" d="M449.56,440.36c0,0.17-5.37,0.3-11.99,0.3c-6.63,0-11.99-0.13-11.99-0.3c0-0.17,5.37-0.3,11.99-0.3
						C444.19,440.06,449.56,440.19,449.56,440.36z"/>
				</g>
			</g>
		</g>
	</g>
</g>
<g id="Boxes">
	<g>
		<g>
			<path class="st6" d="M337.57,126.54c0,0-0.27,0.01-0.78-0.01c-0.52-0.02-1.28-0.06-2.29,0.01c-2,0.11-4.99,0.49-8.52,1.96
				c-3.49,1.47-7.57,4.08-10.82,8.43c-1.61,2.17-2.96,4.77-3.78,7.73c-0.79,2.96-1.06,6.24-0.68,9.62
				c0.43,3.37,1.46,6.85,3.35,10.05c0.94,1.6,2.05,3.15,3.4,4.51c1.31,1.41,2.86,2.65,4.6,3.6c1.74,0.94,3.73,1.54,5.77,1.45
				c2.02-0.07,4.11-0.78,5.59-2.25c1.49-1.47,2.23-3.62,2.23-5.76c0.01-2.16-0.74-4.31-2.03-6.13c-2.6-3.65-6.79-6.1-11.26-7.43
				c-4.51-1.31-9.46-1.35-14.2-0.2c-2.36,0.61-4.67,1.52-6.84,2.72c-2.17,1.21-4.14,2.79-5.87,4.61c-0.41,0.48-0.88,0.91-1.24,1.42
				l-1.13,1.52c-0.66,1.08-1.33,2.16-1.84,3.34c-1.06,2.32-1.8,4.81-2.17,7.37c-0.67,5.12-0.05,10.4,2.02,15
				c2,4.61,5.41,8.57,9.66,10.95c2.12,1.18,4.46,1.95,6.84,2.08c2.37,0.15,4.74-0.46,6.75-1.62c2.01-1.15,3.69-2.89,4.57-4.97
				c0.87-2.09,0.86-4.47,0.1-6.54c-0.74-2.09-2.14-3.88-3.76-5.32c-1.63-1.43-3.54-2.51-5.53-3.21c-4.03-1.32-8.33-1.25-12.17-0.21
				c-3.85,1.05-7.29,3.03-9.99,5.57c-2.69,2.55-4.58,5.68-5.72,8.87c-2.31,6.44-1.72,12.97,0.26,17.97
				c2.04,5.04,5.28,8.62,8.24,10.99c2.99,2.39,5.7,3.68,7.57,4.41c0.94,0.36,1.66,0.61,2.16,0.75c0.49,0.15,0.74,0.25,0.74,0.25
				s-0.26-0.06-0.76-0.2c-0.5-0.12-1.23-0.36-2.19-0.7c-1.88-0.7-4.63-1.97-7.66-4.35c-3-2.36-6.29-5.96-8.38-11.04
				c-2.03-5.05-2.66-11.66-0.34-18.2c1.15-3.25,3.06-6.43,5.8-9.04c2.74-2.59,6.23-4.62,10.15-5.69c3.91-1.06,8.29-1.15,12.44,0.19
				c2.05,0.72,4.01,1.82,5.69,3.29c1.67,1.47,3.12,3.32,3.9,5.51c0.79,2.17,0.82,4.68-0.1,6.89c-0.93,2.21-2.68,4.01-4.77,5.22
				c-2.09,1.2-4.56,1.84-7.02,1.69c-2.46-0.13-4.88-0.92-7.06-2.14c-4.36-2.44-7.84-6.49-9.88-11.19
				c-2.11-4.7-2.74-10.07-2.06-15.28c0.38-2.61,1.13-5.15,2.22-7.51c0.52-1.2,1.21-2.3,1.88-3.41l1.15-1.56
				c0.37-0.53,0.85-0.97,1.27-1.45c1.77-1.86,3.79-3.47,6-4.7c2.21-1.23,4.56-2.14,6.97-2.77c4.83-1.17,9.87-1.13,14.47,0.21
				c4.56,1.36,8.83,3.85,11.52,7.63c1.33,1.88,2.12,4.14,2.1,6.4c0,2.25-0.78,4.52-2.38,6.09c-1.59,1.57-3.79,2.31-5.9,2.37
				c-2.13,0.08-4.21-0.55-5.99-1.52c-1.79-0.98-3.37-2.26-4.7-3.69c-1.38-1.4-2.5-2.98-3.45-4.6c-1.91-3.26-2.94-6.8-3.36-10.21
				c-0.37-3.43-0.09-6.75,0.73-9.75c0.84-2.99,2.22-5.63,3.86-7.82c3.31-4.39,7.45-6.99,10.98-8.45c3.57-1.46,6.59-1.8,8.59-1.88
				c1.01-0.05,1.78,0,2.3,0.04C337.3,126.51,337.57,126.54,337.57,126.54z"/>
		</g>
		<rect x="230.75" y="226.6" class="st10" width="140.21" height="108.14"/>
		<g>
			<polygon class="st10" points="230.75,226.6 256.65,250.76 394.48,250.76 370.96,226.6 			"/>
			<g>
				<path class="st6" d="M230.75,226.6c2.53,0,60.44-0.11,140.21-0.26l0.11,0l0.08,0.08c7.51,7.71,15.31,15.72,23.28,23.9
					c0.08,0.08,0.16,0.17,0.24,0.25l0.43,0.44l-0.62,0c-56.52-0.04-106.68-0.08-137.83-0.1h-0.06l-0.04-0.04
					C240.34,235.62,231.6,227.4,230.75,226.6c0.86,0.79,9.66,8.94,26,24.04l-0.11-0.04c31.15-0.02,81.31-0.06,137.83-0.1l-0.19,0.44
					c-0.08-0.08-0.16-0.16-0.24-0.25c-7.97-8.19-15.76-16.2-23.27-23.91l0.18,0.08C291.19,226.71,233.28,226.61,230.75,226.6z"/>
			</g>
		</g>
		<g>
			<path class="st6" d="M272.87,276.47c-1.48,0-2.84,1.34-2.86,2.82c-0.03,1.48,1.28,2.86,2.76,2.92c1.48,0.05,2.89-1.23,2.97-2.71
				c0.08-1.48-1.17-2.91-2.65-3.02"/>
			<path class="st6" d="M305.97,276.47c-1.48,0-2.84,1.34-2.86,2.82c-0.03,1.48,1.28,2.86,2.76,2.92c1.48,0.05,2.89-1.23,2.97-2.71
				s-1.17-2.91-2.65-3.02"/>
			<g>
				<path class="st6" d="M306.18,302.35c-0.15,0.06-0.37-2.71-2.78-6.22c-1.18-1.74-2.95-3.59-5.3-5.08c-2.33-1.5-5.3-2.57-8.5-2.69
					c-3.2-0.06-6.22,0.85-8.63,2.22c-2.43,1.36-4.29,3.11-5.57,4.78c-2.59,3.37-2.97,6.12-3.11,6.05c-0.02,0,0.01-0.17,0.08-0.47
					c0.09-0.3,0.15-0.77,0.37-1.33c0.36-1.14,1.1-2.74,2.37-4.48c1.26-1.74,3.15-3.56,5.62-4.98c2.46-1.43,5.57-2.39,8.88-2.32
					c3.31,0.12,6.36,1.25,8.74,2.81c2.39,1.56,4.18,3.48,5.34,5.28c1.18,1.8,1.82,3.44,2.12,4.6c0.19,0.57,0.23,1.04,0.29,1.35
					C306.18,302.19,306.2,302.35,306.18,302.35z"/>
			</g>
		</g>
		<polygon class="st14" points="231.07,227.79 255.87,259.23 370.96,259.23 370.96,250.76 256.65,250.76 		"/>
		<g>
			<path class="st6" d="M343.31,334.5c-0.14,0-0.26-18.81-0.26-42.01c0-23.21,0.12-42.01,0.26-42.01c0.14,0,0.26,18.81,0.26,42.01
				C343.58,315.69,343.46,334.5,343.31,334.5z"/>
		</g>
		<rect x="352.97" y="309.98" class="st3" width="12.36" height="13.97"/>
		<g>
			<polygon class="st10" points="230.75,226.6 201.97,250.76 230.75,250.76 			"/>
			<g class="st15">
				<polygon points="230.75,226.6 201.97,250.76 230.75,250.76 				"/>
			</g>
		</g>
	</g>
	<g>
		<g>
			<rect x="213.89" y="334.74" class="st10" width="161.21" height="124.34"/>
			<rect x="213.89" y="334.74" class="st13" width="161.21" height="124.34"/>
			<g>
				<path class="st6" d="M334.71,458.2c-0.14,0-0.26-27.71-0.26-61.9c0-34.19,0.12-61.9,0.26-61.9s0.26,27.71,0.26,61.9
					C334.97,430.49,334.85,458.2,334.71,458.2z"/>
			</g>
			<rect x="349.07" y="430.78" class="st3" width="12.36" height="13.97"/>
			<rect x="263.07" y="335.07" class="st6" width="18.31" height="26.53"/>
			<rect x="263.07" y="432.18" class="st6" width="18.31" height="26.53"/>
		</g>
		<g>
			<path class="st6" d="M373.7,334.74c0,0.01-0.14,0.02-0.41,0.03c-0.3,0.01-0.7,0.01-1.21,0.03c-1.09,0.01-2.66,0.03-4.66,0.05
				c-4.07,0.02-9.91,0.05-17.12,0.08c-14.48,0.02-34.45,0.05-56.49,0.07c-22.06-0.03-42.02-0.06-56.5-0.08
				c-7.21-0.03-13.05-0.06-17.12-0.08c-2-0.02-3.56-0.04-4.66-0.05c-0.51-0.01-0.91-0.02-1.21-0.03c-0.27-0.01-0.41-0.02-0.41-0.03
				s0.14-0.02,0.41-0.03c0.3-0.01,0.7-0.01,1.21-0.03c1.09-0.01,2.66-0.03,4.66-0.05c4.07-0.02,9.91-0.05,17.12-0.08
				c14.48-0.02,34.45-0.05,56.5-0.08c22.05,0.03,42.01,0.06,56.49,0.08c7.21,0.04,13.05,0.06,17.12,0.08c2,0.02,3.56,0.04,4.66,0.05
				c0.51,0.01,0.91,0.02,1.21,0.03C373.56,334.73,373.7,334.74,373.7,334.74z"/>
		</g>
	</g>
</g>
<g id="Speech_Bubble">
	<g>
		<g>
			<path class="st6" d="M97.42,119.47c-1.16-0.28-6.75-1.66-17.55-4.31l0.13-0.02c-3.86,2.46-9.09,4.45-15.15,4.54
				c-3.02-0.01-6.21-0.37-9.39-1.37c-3.18-0.99-6.31-2.63-9.15-4.85c-5.69-4.4-10.11-11.45-11.07-19.56
				c-0.49-4.03-0.16-8.27,1.09-12.33c1.28-4.05,3.48-7.88,6.45-11.11c1.5-1.71,3.28-3.12,5.08-4.43c0.95-0.59,1.88-1.19,2.86-1.71
				l1.49-0.72l0.74-0.36l0.77-0.28c4.09-1.59,8.44-2.2,12.62-1.92c4.18,0.27,8.19,1.44,11.69,3.28c3.51,1.84,6.52,4.34,8.88,7.17
				c2.37,2.84,4.09,6.01,5.18,9.21c1.09,3.21,1.59,6.43,1.62,9.48c0.04,6.12-1.88,11.37-4.21,15.21l0-0.16
				C94.41,114.04,96.87,118.49,97.42,119.47c-0.56-0.97-3.11-5.37-8.17-14.08l-0.05-0.08l0.05-0.08c2.27-3.81,4.12-9.01,4.05-15.04
				c-0.04-3-0.55-6.18-1.64-9.33c-1.09-3.15-2.79-6.26-5.13-9.04c-2.33-2.78-5.29-5.22-8.74-7.02c-3.44-1.8-7.37-2.94-11.48-3.2
				c-4.1-0.27-8.37,0.34-12.37,1.9l-0.76,0.28l-0.73,0.35l-1.46,0.71c-0.96,0.51-1.87,1.1-2.81,1.68c-1.77,1.28-3.51,2.67-4.98,4.34
				c-2.91,3.16-5.07,6.92-6.33,10.89c-1.23,3.98-1.56,8.13-1.08,12.09c0.93,7.96,5.25,14.89,10.83,19.23
				c2.79,2.19,5.85,3.81,8.98,4.8c3.13,0.99,6.27,1.36,9.24,1.39c5.97-0.06,11.14-1.99,14.98-4.39l0.06-0.04l0.07,0.02
				C90.7,117.69,96.26,119.16,97.42,119.47z"/>
		</g>
		<path class="st10" d="M61.96,77.3l0.93,14.66c0.08,1.2,1.03,2.15,2.23,2.22l0,0c1.26,0.08,2.37-0.85,2.51-2.11l1.63-14.74
			c0.12-1.12-0.76-2.09-1.88-2.07l-3.58,0.05C62.73,75.33,61.89,76.24,61.96,77.3z"/>
		<path class="st10" d="M69.01,102.44c-0.62,1.88-2.65,2.89-4.52,2.27c-1.88-0.62-2.89-2.65-2.27-4.52
			c0.62-1.88,2.65-2.89,4.52-2.27C68.62,98.53,69.63,100.56,69.01,102.44z"/>
	</g>
</g>
</svg>
