<svg xmlns="http://www.w3.org/2000/svg" xmlns:xlink="http://www.w3.org/1999/xlink" width="500" zoomAndPan="magnify" viewBox="0 0 375 374.999991" height="500" preserveAspectRatio="xMidYMid meet" version="1.0"><defs><g/></defs><g fill="#544f4d" fill-opacity="1"><g transform="translate(33.055445, 190.287967)"><g><path d="M 33.625 -33.265625 L 21.390625 -33.265625 L 21.390625 0 L 13.171875 0 L 13.171875 -33.265625 L 1.09375 -33.265625 L 1.09375 -39.9375 L 33.625 -39.9375 Z M 33.625 -33.265625 "/></g></g></g><g fill="#544f4d" fill-opacity="1"><g transform="translate(64.430069, 190.287967)"><g><path d="M 19.71875 -22.25 C 18.644531 -22.394531 17.695312 -22.46875 16.875 -22.46875 C 13.875 -22.46875 11.90625 -21.453125 10.96875 -19.421875 L 10.96875 0 L 3.046875 0 L 3.046875 -29.671875 L 10.53125 -29.671875 L 10.75 -26.140625 C 12.34375 -28.859375 14.546875 -30.21875 17.359375 -30.21875 C 18.234375 -30.21875 19.054688 -30.101562 19.828125 -29.875 Z M 19.71875 -22.25 "/></g></g></g><g fill="#544f4d" fill-opacity="1"><g transform="translate(81.544728, 190.287967)"><g><path d="M 20.234375 0 C 19.867188 -0.707031 19.609375 -1.59375 19.453125 -2.65625 C 17.523438 -0.519531 15.023438 0.546875 11.953125 0.546875 C 9.046875 0.546875 6.632812 -0.289062 4.71875 -1.96875 C 2.8125 -3.65625 1.859375 -5.78125 1.859375 -8.34375 C 1.859375 -11.488281 3.023438 -13.898438 5.359375 -15.578125 C 7.691406 -17.265625 11.0625 -18.113281 15.46875 -18.125 L 19.109375 -18.125 L 19.109375 -19.828125 C 19.109375 -21.203125 18.753906 -22.300781 18.046875 -23.125 C 17.347656 -23.945312 16.242188 -24.359375 14.734375 -24.359375 C 13.390625 -24.359375 12.335938 -24.035156 11.578125 -23.390625 C 10.828125 -22.753906 10.453125 -21.878906 10.453125 -20.765625 L 2.515625 -20.765625 C 2.515625 -22.484375 3.046875 -24.070312 4.109375 -25.53125 C 5.171875 -27 6.671875 -28.144531 8.609375 -28.96875 C 10.546875 -29.800781 12.722656 -30.21875 15.140625 -30.21875 C 18.796875 -30.21875 21.695312 -29.300781 23.84375 -27.46875 C 26 -25.632812 27.078125 -23.050781 27.078125 -19.71875 L 27.078125 -6.859375 C 27.085938 -4.046875 27.476562 -1.914062 28.25 -0.46875 L 28.25 0 Z M 13.6875 -5.515625 C 14.851562 -5.515625 15.929688 -5.773438 16.921875 -6.296875 C 17.910156 -6.816406 18.640625 -7.515625 19.109375 -8.390625 L 19.109375 -13.5 L 16.15625 -13.5 C 12.1875 -13.5 10.070312 -12.125 9.8125 -9.375 L 9.796875 -8.90625 C 9.796875 -7.925781 10.140625 -7.113281 10.828125 -6.46875 C 11.523438 -5.832031 12.476562 -5.515625 13.6875 -5.515625 Z M 13.6875 -5.515625 "/></g></g></g><g fill="#544f4d" fill-opacity="1"><g transform="translate(108.284862, 190.287967)"><g><path d="M 14.15625 -9.6875 L 19.671875 -29.671875 L 27.953125 -29.671875 L 17.9375 0 L 10.375 0 L 0.359375 -29.671875 L 8.640625 -29.671875 Z M 14.15625 -9.6875 "/></g></g></g><g fill="#544f4d" fill-opacity="1"><g transform="translate(133.29735, 190.287967)"><g><path d="M 16.703125 0.546875 C 12.347656 0.546875 8.800781 -0.785156 6.0625 -3.453125 C 3.332031 -6.117188 1.96875 -9.675781 1.96875 -14.125 L 1.96875 -14.890625 C 1.96875 -17.867188 2.546875 -20.53125 3.703125 -22.875 C 4.859375 -25.226562 6.488281 -27.039062 8.59375 -28.3125 C 10.707031 -29.582031 13.117188 -30.21875 15.828125 -30.21875 C 19.890625 -30.21875 23.082031 -28.9375 25.40625 -26.375 C 27.738281 -23.820312 28.90625 -20.195312 28.90625 -15.5 L 28.90625 -12.265625 L 10.015625 -12.265625 C 10.265625 -10.328125 11.035156 -8.769531 12.328125 -7.59375 C 13.617188 -6.425781 15.25 -5.84375 17.21875 -5.84375 C 20.28125 -5.84375 22.671875 -6.945312 24.390625 -9.15625 L 28.28125 -4.796875 C 27.09375 -3.117188 25.484375 -1.804688 23.453125 -0.859375 C 21.421875 0.078125 19.171875 0.546875 16.703125 0.546875 Z M 15.796875 -23.8125 C 14.222656 -23.8125 12.945312 -23.28125 11.96875 -22.21875 C 10.988281 -21.15625 10.363281 -19.632812 10.09375 -17.65625 L 21.125 -17.65625 L 21.125 -18.296875 C 21.082031 -20.046875 20.601562 -21.398438 19.6875 -22.359375 C 18.78125 -23.328125 17.484375 -23.8125 15.796875 -23.8125 Z M 15.796875 -23.8125 "/></g></g></g><g fill="#544f4d" fill-opacity="1"><g transform="translate(160.284296, 190.287967)"><g><path d="M 11.40625 0 L 3.453125 0 L 3.453125 -42.125 L 11.40625 -42.125 Z M 11.40625 0 "/></g></g></g><g fill="#00aaa1" fill-opacity="1"><g transform="translate(175.174227, 191.087241)"><g><path d="M 3.6875 0 L 3.6875 -41.296875 L 18.15625 -41.296875 C 23.164062 -41.296875 26.960938 -40.332031 29.546875 -38.40625 C 32.140625 -36.488281 33.4375 -33.675781 33.4375 -29.96875 C 33.4375 -27.945312 32.914062 -26.164062 31.875 -24.625 C 30.832031 -23.082031 29.382812 -21.953125 27.53125 -21.234375 C 29.65625 -20.710938 31.328125 -19.644531 32.546875 -18.03125 C 33.765625 -16.425781 34.375 -14.460938 34.375 -12.140625 C 34.375 -8.171875 33.101562 -5.164062 30.5625 -3.125 C 28.03125 -1.082031 24.421875 -0.0390625 19.734375 0 Z M 12.1875 -17.984375 L 12.1875 -6.828125 L 19.484375 -6.828125 C 21.484375 -6.828125 23.046875 -7.304688 24.171875 -8.265625 C 25.296875 -9.222656 25.859375 -10.539062 25.859375 -12.21875 C 25.859375 -16 23.90625 -17.921875 20 -17.984375 Z M 12.1875 -23.984375 L 18.484375 -23.984375 C 22.773438 -24.066406 24.921875 -25.78125 24.921875 -29.125 C 24.921875 -31 24.378906 -32.347656 23.296875 -33.171875 C 22.210938 -33.992188 20.5 -34.40625 18.15625 -34.40625 L 12.1875 -34.40625 Z M 12.1875 -23.984375 "/></g></g></g><g fill="#00aaa1" fill-opacity="1"><g transform="translate(208.749196, 191.087241)"><g><path d="M 20.390625 -23 C 19.273438 -23.144531 18.289062 -23.21875 17.4375 -23.21875 C 14.34375 -23.21875 12.3125 -22.171875 11.34375 -20.078125 L 11.34375 0 L 3.140625 0 L 3.140625 -30.6875 L 10.890625 -30.6875 L 11.109375 -27.03125 C 12.753906 -29.84375 15.035156 -31.25 17.953125 -31.25 C 18.859375 -31.25 19.707031 -31.125 20.5 -30.875 Z M 20.390625 -23 "/></g></g></g><g fill="#00aaa1" fill-opacity="1"><g transform="translate(226.445473, 191.087241)"><g><path d="M 20.921875 0 C 20.546875 -0.738281 20.273438 -1.65625 20.109375 -2.75 C 18.117188 -0.539062 15.535156 0.5625 12.359375 0.5625 C 9.359375 0.5625 6.867188 -0.304688 4.890625 -2.046875 C 2.910156 -3.785156 1.921875 -5.976562 1.921875 -8.625 C 1.921875 -11.875 3.125 -14.367188 5.53125 -16.109375 C 7.945312 -17.847656 11.4375 -18.726562 16 -18.75 L 19.765625 -18.75 L 19.765625 -20.5 C 19.765625 -21.914062 19.398438 -23.050781 18.671875 -23.90625 C 17.941406 -24.757812 16.796875 -25.1875 15.234375 -25.1875 C 13.847656 -25.1875 12.757812 -24.851562 11.96875 -24.1875 C 11.1875 -23.53125 10.796875 -22.625 10.796875 -21.46875 L 2.609375 -21.46875 C 2.609375 -23.25 3.15625 -24.894531 4.25 -26.40625 C 5.351562 -27.914062 6.90625 -29.097656 8.90625 -29.953125 C 10.90625 -30.816406 13.15625 -31.25 15.65625 -31.25 C 19.4375 -31.25 22.4375 -30.296875 24.65625 -28.390625 C 26.875 -26.492188 27.984375 -23.828125 27.984375 -20.390625 L 27.984375 -7.09375 C 28.003906 -4.175781 28.410156 -1.972656 29.203125 -0.484375 L 29.203125 0 Z M 14.15625 -5.703125 C 15.363281 -5.703125 16.476562 -5.96875 17.5 -6.5 C 18.519531 -7.039062 19.273438 -7.765625 19.765625 -8.671875 L 19.765625 -13.953125 L 16.703125 -13.953125 C 12.597656 -13.953125 10.414062 -12.535156 10.15625 -9.703125 L 10.125 -9.21875 C 10.125 -8.195312 10.484375 -7.351562 11.203125 -6.6875 C 11.921875 -6.03125 12.90625 -5.703125 14.15625 -5.703125 Z M 14.15625 -5.703125 "/></g></g></g><g fill="#00aaa1" fill-opacity="1"><g transform="translate(254.094283, 191.087241)"><g><path d="M 11.796875 0 L 3.578125 0 L 3.578125 -30.6875 L 11.796875 -30.6875 Z M 3.09375 -38.625 C 3.09375 -39.851562 3.503906 -40.863281 4.328125 -41.65625 C 5.148438 -42.445312 6.269531 -42.84375 7.6875 -42.84375 C 9.082031 -42.84375 10.195312 -42.445312 11.03125 -41.65625 C 11.863281 -40.863281 12.28125 -39.851562 12.28125 -38.625 C 12.28125 -37.375 11.859375 -36.351562 11.015625 -35.5625 C 10.171875 -34.769531 9.054688 -34.375 7.671875 -34.375 C 6.296875 -34.375 5.1875 -34.769531 4.34375 -35.5625 C 3.507812 -36.351562 3.09375 -37.375 3.09375 -38.625 Z M 3.09375 -38.625 "/></g></g></g><g fill="#00aaa1" fill-opacity="1"><g transform="translate(266.00618, 191.087241)"><g><path d="M 10.6875 -30.6875 L 10.953125 -27.140625 C 13.140625 -29.878906 16.078125 -31.25 19.765625 -31.25 C 23.015625 -31.25 25.429688 -30.289062 27.015625 -28.375 C 28.609375 -26.46875 29.425781 -23.617188 29.46875 -19.828125 L 29.46875 0 L 21.265625 0 L 21.265625 -19.625 C 21.265625 -21.363281 20.882812 -22.625 20.125 -23.40625 C 19.375 -24.195312 18.117188 -24.59375 16.359375 -24.59375 C 14.054688 -24.59375 12.328125 -23.609375 11.171875 -21.640625 L 11.171875 0 L 2.984375 0 L 2.984375 -30.6875 Z M 10.6875 -30.6875 "/></g></g></g><g fill="#544f4d" fill-opacity="1"><g transform="translate(341.118294, 191.249987)"><g><path d="M 0.6875 -0.78125 C 0.6875 -1.03125 0.769531 -1.234375 0.9375 -1.390625 C 1.113281 -1.546875 1.328125 -1.625 1.578125 -1.625 C 1.835938 -1.625 2.050781 -1.546875 2.21875 -1.390625 C 2.394531 -1.234375 2.484375 -1.03125 2.484375 -0.78125 C 2.484375 -0.53125 2.394531 -0.328125 2.21875 -0.171875 C 2.050781 -0.015625 1.835938 0.0625 1.578125 0.0625 C 1.316406 0.0625 1.101562 -0.015625 0.9375 -0.171875 C 0.769531 -0.328125 0.6875 -0.53125 0.6875 -0.78125 Z M 0.6875 -0.78125 "/></g></g></g></svg>